<svg width="180" height="178" viewBox="0 0 180 178" fill="none" xmlns="http://www.w3.org/2000/svg">
<circle cx="89.7563" cy="89.353" r="86.6182" fill="#BBBDBC"/>
<circle cx="90.0703" cy="89.6667" r="83.166" fill="url(#paint0_radial_56_14477)"/>
<path d="M0 82.7622L3.76601 79.3101L3.45217 98.1401L0 93.1187V82.7622Z" fill="#909090"/>
<path d="M13.782 137.759L14.773 132.747L25.6689 148.108L19.9139 146.105L13.782 137.759Z" fill="#909090"/>
<path d="M56.6762 172.996L54.3658 168.439L72.4156 173.812L66.6501 175.785L56.6762 172.996Z" fill="#909090"/>
<path d="M113.267 176.68L108.696 174.4L126.391 167.953L122.938 172.974L113.267 176.68Z" fill="#909090"/>
<path d="M159.325 146.213L154.244 146.746L165.703 131.801L165.489 137.89L159.325 146.213Z" fill="#909090"/>
<path d="M179.705 95.8491L175.928 99.2887L176.305 80.4598L179.74 85.4927L179.705 95.8491Z" fill="#909090"/>
<path d="M169.201 47.0122L167.794 51.9234L158.224 35.7036L163.791 38.1815L169.201 47.0122Z" fill="#909090"/>
<path d="M132.619 10.6021L134.214 15.4553L117.183 7.41771L123.18 6.3387L132.619 10.6021Z" fill="#909090"/>
<path d="M78.3524 0.529659L82.3415 3.72142L63.6862 6.30035L68.1185 2.11864L78.3524 0.529659Z" fill="#909090"/>
<path d="M22.4939 29.6987L27.5898 29.3352L15.6396 43.8908L16.0565 37.8115L22.4939 29.6987Z" fill="#909090"/>
<defs>
<radialGradient id="paint0_radial_56_14477" cx="0" cy="0" r="1" gradientUnits="userSpaceOnUse" gradientTransform="translate(90.0703 89.6667) rotate(90) scale(83.166)">
<stop stop-color="#443D33"/>
<stop offset="1" stop-color="#1C1B17"/>
</radialGradient>
</defs>
</svg>
