<svg width="191" height="189" viewBox="0 0 191 189" fill="none" xmlns="http://www.w3.org/2000/svg">
<circle cx="95.3483" cy="94.9194" r="92.0143" fill="#BBBDBC"/>
<circle cx="95.6816" cy="95.2526" r="88.3471" fill="url(#paint0_radial_56_14490)"/>
<path d="M0 87.9182L4.00062 84.251L3.66724 104.254L0 98.9199V87.9182Z" fill="#909090"/>
<path d="M14.641 146.341L15.6938 141.017L27.2685 157.335L21.1549 155.207L14.641 146.341Z" fill="#909090"/>
<path d="M60.207 183.773L57.7527 178.933L76.927 184.641L70.8023 186.736L60.207 183.773Z" fill="#909090"/>
<path d="M120.324 187.687L115.467 185.264L134.265 178.416L130.597 183.75L120.324 187.687Z" fill="#909090"/>
<path d="M169.251 155.322L163.854 155.888L176.026 140.012L175.799 146.481L169.251 155.322Z" fill="#909090"/>
<path d="M190.901 101.82L186.888 105.474L187.288 85.4723L190.938 90.8187L190.901 101.82Z" fill="#909090"/>
<path d="M179.742 49.9409L178.247 55.158L168.081 37.9278L173.994 40.5601L179.742 49.9409Z" fill="#909090"/>
<path d="M140.881 11.2626L142.576 16.4181L124.483 7.87981L130.854 6.73359L140.881 11.2626Z" fill="#909090"/>
<path d="M83.2341 0.562656L87.4717 3.95326L67.6543 6.69285L72.3626 2.25062L83.2341 0.562656Z" fill="#909090"/>
<path d="M23.8953 31.549L29.3087 31.163L16.6141 46.6253L17.0569 40.1672L23.8953 31.549Z" fill="#909090"/>
<defs>
<radialGradient id="paint0_radial_56_14490" cx="0" cy="0" r="1" gradientUnits="userSpaceOnUse" gradientTransform="translate(95.6816 95.2526) rotate(90) scale(88.3471)">
<stop stop-color="#443D33"/>
<stop offset="1" stop-color="#1C1B17"/>
</radialGradient>
</defs>
</svg>
