<svg width="287" height="284" viewBox="0 0 287 284" fill="none" xmlns="http://www.w3.org/2000/svg">
<circle cx="143" cy="142.357" r="138" fill="#BBBDBC"/>
<circle cx="143.5" cy="142.857" r="132.5" fill="url(#paint0_radial_56_14463)"/>
<path d="M0 131.857L6 126.357L5.5 156.357L0 148.357V131.857Z" fill="#909090"/>
<path d="M21.9576 219.477L23.5365 211.492L40.8958 235.965L31.7269 232.774L21.9576 219.477Z" fill="#909090"/>
<path d="M90.2968 275.616L86.6158 268.357L115.373 276.918L106.187 280.06L90.2968 275.616Z" fill="#909090"/>
<path d="M180.457 281.487L173.174 277.853L201.365 267.582L195.864 275.582L180.457 281.487Z" fill="#909090"/>
<path d="M253.837 232.947L245.742 233.796L263.997 209.985L263.657 219.687L253.837 232.947Z" fill="#909090"/>
<path d="M286.306 152.707L280.288 158.187L280.888 128.189L286.361 136.207L286.306 152.707Z" fill="#909090"/>
<path d="M269.571 74.8999L267.329 82.7243L252.082 56.883L260.951 60.8309L269.571 74.8999Z" fill="#909090"/>
<path d="M211.287 16.8911L213.83 24.6233L186.696 11.8178L196.25 10.0987L211.287 16.8911Z" fill="#909090"/>
<path d="M124.832 0.843853L131.187 5.92896L101.466 10.0377L108.527 3.37541L124.832 0.843853Z" fill="#909090"/>
<path d="M35.8377 47.3163L43.9565 46.7373L24.9175 69.9271L25.5817 60.2416L35.8377 47.3163Z" fill="#909090"/>
<defs>
<radialGradient id="paint0_radial_56_14463" cx="0" cy="0" r="1" gradientUnits="userSpaceOnUse" gradientTransform="translate(143.5 142.857) rotate(90) scale(132.5)">
<stop stop-color="#443D33"/>
<stop offset="1" stop-color="#1C1B17"/>
</radialGradient>
</defs>
</svg>
