<svg width="191" height="209" viewBox="0 0 191 209" fill="none" xmlns="http://www.w3.org/2000/svg">
<ellipse cx="95.5" cy="100.828" rx="95.5" ry="95.0901" fill="url(#paint0_radial_56_14447)"/>
<ellipse cx="96.7297" cy="101.648" rx="27.0515" ry="26.2318" fill="url(#paint1_radial_56_14447)"/>
<path d="M15.4968 50.0044L87.7124 97.6054C85.8825 99.9528 86.95 103.583 87.7124 105.104L6.34729 136.077C-8.55332 93.5625 6.23837 60.9809 15.4968 50.0044Z" fill="white" fill-opacity="0.1"/>
<path d="M166.445 38.3842L100.953 94.8798C99.1941 92.4789 95.4107 92.516 93.7389 92.8346L86.1308 6.1066C131.098 3.36606 158.41 26.4831 166.445 38.3842Z" fill="white" fill-opacity="0.1"/>
<path d="M85.2712 194.772L96.2147 108.975C99.1281 109.584 101.917 107.028 102.948 105.673L166.581 165.09C134.969 197.188 99.2029 198.252 85.2712 194.772Z" fill="white" fill-opacity="0.1"/>
<path d="M87.7124 82.7939C83.7776 84.4334 79.515 89.4885 77.8755 91.8111L82.3841 97.5493L86.4828 93.8605L89.7618 97.5493L92.6309 93.8605L90.1716 90.5815L92.6309 87.7124L87.7124 82.7939Z" fill="#898A8C"/>
<circle cx="95.9098" cy="100.828" r="8.19742" fill="#2C2B31"/>
<defs>
<radialGradient id="paint0_radial_56_14447" cx="0" cy="0" r="1" gradientUnits="userSpaceOnUse" gradientTransform="translate(95.5 100.828) rotate(90) scale(95.0901 95.5)">
<stop stop-color="#F2D5B8"/>
<stop offset="1" stop-color="#D27B14"/>
</radialGradient>
<radialGradient id="paint1_radial_56_14447" cx="0" cy="0" r="1" gradientUnits="userSpaceOnUse" gradientTransform="translate(96.7297 101.648) rotate(90) scale(26.2318 27.0515)">
<stop stop-color="#F7D1AB"/>
<stop offset="1" stop-color="#BA774D"/>
</radialGradient>
</defs>
</svg>
