<svg width="1072" height="745" viewBox="0 0 1072 745" fill="none" xmlns="http://www.w3.org/2000/svg">
<path d="M247.104 177.208C247.104 180.216 246.688 184.216 245.856 189.208C246.24 188.888 246.816 188.344 247.584 187.576C248.48 186.68 250.272 185.368 252.96 183.64L254.4 182.584L257.28 181.144L260.448 179.032C260.32 178.904 260.48 178.584 260.928 178.072C262.144 175.96 262.848 174.104 263.04 172.504C263.04 171.672 262.912 171.064 262.656 170.68C262.4 170.232 261.6 169.944 260.256 169.816C260.128 169.688 259.52 169.528 258.432 169.336C255.808 169.336 254.048 169.496 253.152 169.816C252.32 170.136 251.68 170.296 251.232 170.296L249.792 170.68L248.16 170.776L247.776 173.368C247.776 173.432 247.648 174.072 247.392 175.288C247.392 175.736 247.296 176.376 247.104 177.208ZM263.424 219.64C262.464 219.32 261.12 218.392 259.392 216.856C259.072 216.408 258.24 215.64 256.896 214.552C255.616 213.784 254.016 212.28 252.096 210.04C252.096 209.976 251.872 209.464 251.424 208.504C250.656 207.8 249.92 206.392 249.216 204.28C249.152 204.216 249.056 204.088 248.928 203.896C248.8 203.704 248.576 203.416 248.256 203.032C248 202.584 247.712 201.848 247.392 200.824C247.072 199.8 246.432 198.68 245.472 197.464H245.088C245.088 197.848 244.992 198.392 244.8 199.096V201.016L244.224 206.584L242.784 215.896C243.04 216.408 243.04 217.272 242.784 218.488C242.784 219 242.624 219.832 242.304 220.984C241.984 222.136 241.504 222.904 240.864 223.288C240.224 223.672 238.976 223.736 237.12 223.48C236.48 223.224 235.584 222.328 234.432 220.792C233.984 220.6 233.344 219.576 232.512 217.72C232.64 216.568 232.672 215.864 232.608 215.608C232.544 215.288 232.512 214.904 232.512 214.456C232.512 214.008 232.544 213.72 232.608 213.592C232.48 213.72 232.48 213.08 232.608 211.672V211C232.608 210.744 232.8 209.72 233.184 207.928C233.184 206.584 233.184 205.656 233.184 205.144C233.248 204.568 233.472 203.896 233.856 203.128V200.536L233.952 197.944C234.336 196.792 234.528 195.448 234.528 193.912C234.656 193.144 234.72 192.408 234.72 191.704C234.784 190.936 234.912 190.104 235.104 189.208C235.104 187.8 235.2 186.744 235.392 186.04C235.584 185.272 235.68 184.76 235.68 184.504C235.744 184.184 235.808 183.704 235.872 183.064L236.544 178.936L236.832 172.888L235.68 172.12C233.632 171.288 232.192 170.456 231.36 169.624C231.04 169.432 230.912 168.952 230.976 168.184C231.104 167.352 231.552 166.68 232.32 166.168C233.216 166.168 234.528 165.624 236.256 164.536C236.448 164.536 237.024 164.216 237.984 163.576L239.712 163C239.904 162.808 240.704 162.456 242.112 161.944C242.432 161.944 242.944 161.784 243.648 161.464C244.352 161.08 245.088 160.856 245.856 160.792C246.496 160.728 247.776 160.568 249.696 160.312C251.68 159.992 253.344 160.024 254.688 160.408C255.52 160.408 256.416 160.568 257.376 160.888C258.912 160.888 260.64 161.4 262.56 162.424C263.008 162.424 263.648 162.712 264.48 163.288L266.304 164.152L268.704 166.072C270.048 167.16 271.264 168.536 272.352 170.2C273.12 170.968 273.408 171.96 273.216 173.176C272.32 178.744 268.448 184.28 261.6 189.784L258.816 191.032L254.112 194.008C255.712 196.248 257.792 198.872 260.352 201.88C260.544 202.328 261.28 203.224 262.56 204.568L265.824 208.6L266.976 210.328L269.568 213.208C269.76 213.656 270.304 214.2 271.2 214.84L272.832 216.376C274.304 217.528 274.912 218.84 274.656 220.312C274.4 221.784 273.504 222.552 271.968 222.616L269.664 222.424L265.056 221.176L263.424 219.64Z" fill="#B21B1B"/>
<path d="M745.844 222.548C745.844 221.652 745.876 220.916 745.94 220.34C746.26 217.204 746.484 215.22 746.612 214.388C746.804 213.556 746.9 213.044 746.9 212.852V208.724C747.092 208.468 747.284 206.9 747.476 204.02C747.476 200.948 747.604 198.676 747.86 197.204C747.86 196.244 748.18 195.348 748.82 194.516C749.652 193.108 750.644 192.116 751.796 191.54H751.892C752.852 191.284 753.812 191.316 754.772 191.636C755.796 191.956 756.372 192.148 756.5 192.212C756.628 192.212 756.788 192.276 756.98 192.404C757.236 192.468 757.396 192.532 757.46 192.596C757.588 192.596 757.716 192.66 757.844 192.788C758.036 192.852 758.164 192.948 758.228 193.076C758.356 193.14 758.484 193.236 758.612 193.364C758.74 193.428 758.836 193.524 758.9 193.652C759.54 194.932 759.988 199.156 760.244 206.324C760.436 207.476 760.532 209.332 760.532 211.892C760.532 214.388 760.5 216.084 760.436 216.98V217.94C760.308 219.092 760.244 219.956 760.244 220.532V221.204C760.244 222.42 760.148 223.348 759.956 223.988C759.956 225.46 759.796 226.836 759.476 228.116C759.476 228.628 759.316 229.46 758.996 230.612C758.74 231.7 758.612 232.596 758.612 233.3C758.676 233.62 758.388 234.964 757.748 237.332C757.876 237.588 757.652 238.58 757.076 240.308C757.076 241.012 756.852 241.844 756.404 242.804C755.956 243.7 755.572 244.596 755.252 245.492C754.932 246.324 754.74 246.804 754.676 246.932C754.292 248.916 753.268 251.06 751.604 253.364L750.068 254.9C750.196 255.028 750.036 255.316 749.588 255.764C749.204 256.212 747.284 257.364 743.828 259.22C743.764 259.284 743.092 259.476 741.812 259.796C740.596 260.116 739.188 260.276 737.588 260.276C735.988 260.276 734.452 260.02 732.98 259.508C732.084 259.316 731.284 258.996 730.58 258.548C730.26 258.228 729.812 257.908 729.236 257.588C728.916 257.588 727.988 257.012 726.452 255.86C726.196 255.668 725.364 254.484 723.956 252.308C723.508 251.284 723.252 250.74 723.188 250.676C723.188 250.548 723.092 250.324 722.9 250.004C722.772 249.684 722.676 248.948 722.612 247.796C722.484 245.236 723.348 243.956 725.204 243.956C727.124 243.956 728.916 244.916 730.58 246.836C731.092 247.348 731.412 247.7 731.54 247.892C731.668 248.02 731.956 248.308 732.404 248.756C732.916 249.204 733.3 249.492 733.556 249.62C733.876 249.748 734.26 249.908 734.708 250.1C735.22 250.292 735.7 250.388 736.148 250.388C736.596 250.388 737.172 250.26 737.876 250.004C738.644 249.684 739.156 249.3 739.412 248.852C739.412 248.212 739.764 247.38 740.468 246.356C741.236 245.332 741.652 244.756 741.716 244.628C741.908 243.732 742.1 243.092 742.292 242.708C742.676 241.62 742.996 240.18 743.252 238.388C743.38 238.26 743.252 237.46 742.868 235.988C742.868 235.732 742.324 235.444 741.236 235.124C740.212 234.74 739.316 234.516 738.548 234.452C737.268 234.708 735.636 234.068 733.652 232.532C732.82 231.892 732.308 231.412 732.116 231.092C731.924 230.708 731.732 230.452 731.54 230.324C731.412 230.196 731.284 229.972 731.156 229.652C729.812 227.412 729.14 225.972 729.14 225.332L728.756 224.372C728.756 223.732 728.5 223.156 727.988 222.644C727.988 222.516 727.892 221.364 727.7 219.188C727.252 217.524 727.028 216.02 727.028 214.676V213.14L727.124 211.124C726.996 210.612 727.028 209.588 727.22 208.052V204.404L727.316 202.964V200.948C727.38 200.884 727.412 200.564 727.412 199.988L727.508 199.028C727.508 198.388 727.54 197.876 727.604 197.492C727.604 194.804 729.012 193.236 731.828 192.788C734.004 192.596 735.476 192.82 736.244 193.46C737.716 194.74 738.356 197.396 738.164 201.428C738.164 202.58 738.1 203.54 737.972 204.308C738.356 205.524 738.452 206.58 738.26 207.476C738.388 207.924 738.452 208.372 738.452 208.82V210.26C738.452 210.516 738.548 211.7 738.74 213.812C738.996 215.924 739.252 217.364 739.508 218.132C739.508 218.964 739.636 219.764 739.892 220.532C739.892 221.044 740.244 222.004 740.948 223.412C741.524 226.292 742.612 227.636 744.212 227.444C744.852 227.316 745.364 226.228 745.748 224.18C745.94 223.988 745.972 223.444 745.844 222.548Z" fill="#B21B1B"/>
<path d="M405.532 365.02L403.708 365.116C403.58 364.988 402.876 364.892 401.596 364.828C401.468 364.572 400.988 364.284 400.156 363.964C399.772 363.964 398.972 363.356 397.756 362.14C396.668 361.244 396.092 360.732 396.028 360.604C395.964 360.348 395.74 360.028 395.356 359.644C395.1 359.26 394.812 358.364 394.492 356.956C393.468 353.82 392.924 351.772 392.86 350.812C392.796 349.852 392.86 348.508 393.052 346.78C392.796 346.46 392.828 345.66 393.148 344.38C393.148 343.676 393.244 342.076 393.436 339.58V339.004L393.82 334.684C393.756 333.404 393.948 332.092 394.396 330.748C394.844 329.404 395.164 328.156 395.356 327.004C395.548 326.94 395.74 326.108 395.932 324.508C396.892 321.5 397.468 319.836 397.66 319.516L399.196 316.828C399.388 316.636 399.676 316.22 400.06 315.58L402.94 311.836C403.324 311.388 404.156 310.844 405.436 310.204C406.14 309.5 406.972 308.956 407.932 308.572C410.364 307.548 412.444 306.94 414.172 306.748C414.94 307.324 415.996 307.132 417.34 306.172C421.18 306.492 423.74 306.652 425.02 306.652C426.364 306.652 427.676 306.876 428.956 307.324C430.876 307.708 431.868 308.444 431.932 309.532C432.06 311.132 431.836 312.348 431.26 313.18C430.684 314.012 429.948 314.364 429.052 314.236C426.428 313.852 424.284 313.724 422.62 313.852C420.956 313.98 419.388 314.46 417.916 315.292C417.788 315.356 417.5 315.484 417.052 315.676C416.028 316.124 415.196 316.604 414.556 317.116C412.188 319.1 409.98 322.844 407.932 328.348L407.644 329.98C407.708 329.916 407.708 329.948 407.644 330.076C407.644 330.14 407.58 330.332 407.452 330.652C407.388 330.908 407.324 331.132 407.26 331.324C407.26 331.516 407.164 331.836 406.972 332.284C406.332 334.012 405.756 336.444 405.244 339.58C404.796 342.652 404.572 345.212 404.572 347.26C404.572 349.308 404.924 350.94 405.628 352.156L407.164 353.884C407.42 354.396 408.188 355.004 409.468 355.708C410.044 356.412 410.908 357.116 412.06 357.82C413.084 358.268 414.812 357.788 417.244 356.38C417.5 356.188 417.756 355.964 418.012 355.708L420.316 354.172C421.724 352.7 422.588 351.708 422.908 351.196L424.06 350.236L424.444 347.26C424.444 347.196 424.508 347.004 424.636 346.684C424.892 345.724 425.02 344.892 425.02 344.188V342.844L424.828 339.868C424.892 338.972 424.764 338.364 424.444 338.044C423.484 338.044 421.692 338.94 419.068 340.732C418.876 340.86 418.428 340.924 417.724 340.924C417.084 340.86 416.572 340.732 416.188 340.54C415.1 339.9 414.556 339.1 414.556 338.14C414.556 337.18 414.652 336.412 414.844 335.836C415.036 335.26 415.132 334.876 415.132 334.684C415.196 334.492 415.324 334.3 415.516 334.108C415.772 333.852 416.092 333.596 416.476 333.34C416.86 333.084 417.308 332.7 417.82 332.188C418.396 331.612 419.548 330.908 421.276 330.076C423.004 329.244 424.956 328.828 427.132 328.828C429.308 328.828 431.068 329.468 432.412 330.748C433.756 331.964 434.908 334.268 435.868 337.66C435.996 338.428 436.06 340.124 436.06 342.748C436.06 345.308 435.452 350.108 434.236 357.148C433.916 360.22 433.532 362.3 433.084 363.388C432.7 364.412 432.444 365.468 432.316 366.556C432.188 367.708 432.06 368.508 431.932 368.956C431.868 369.404 431.804 369.692 431.74 369.82C431.74 370.012 431.708 370.172 431.644 370.3C431.644 370.428 431.548 370.78 431.356 371.356C431.164 371.996 430.684 372.636 429.916 373.276C429.148 373.916 428.444 374.268 427.804 374.332C425.692 373.948 424.284 373.276 423.58 372.316C423.324 371.932 422.972 371.228 422.524 370.204C422.076 369.18 421.82 368.284 421.756 367.516C421.756 366.812 421.756 366.332 421.756 366.076C421.82 365.82 421.948 365.052 422.14 363.772C422.332 362.428 422.46 361.404 422.524 360.7L419.932 363.868C419.932 364.124 419.356 364.572 418.204 365.212C417.692 365.724 416.22 365.916 413.788 365.788H412.924C412.86 366.3 411.356 366.268 408.412 365.692C408.028 365.756 407.068 365.532 405.532 365.02Z" fill="#B21B1B"/>
<path d="M571.836 307.084C571.964 306.892 571.964 306.444 571.836 305.74C571.58 303.436 571.548 301.836 571.74 300.94C571.484 297.484 571.388 295.468 571.452 294.892C571.58 294.316 571.772 293.996 572.028 293.932C571.772 293.548 571.516 292.14 571.26 289.708C571.068 287.276 571.036 285.644 571.164 284.812C571.036 284.3 571.004 283.692 571.068 282.988C571.132 282.22 571.228 281.708 571.356 281.452C571.228 281.324 571.132 280.844 571.068 280.012V275.692L571.26 273.196V271.084L571.836 268.108C571.644 267.788 571.804 267.212 572.316 266.38C571.676 265.036 572.348 263.372 574.332 261.388C574.396 261.26 575.132 260.844 576.54 260.14C577.692 260.076 578.46 260.076 578.844 260.14C579.292 260.204 579.932 260.268 580.764 260.332C581.66 260.396 582.332 260.492 582.78 260.62C583.932 261.004 584.508 262.028 584.508 263.692V265.324C584.636 267.628 584.7 269.356 584.7 270.508V272.62C584.7 273.452 584.636 273.932 584.508 274.06C584.572 274.316 584.572 274.924 584.508 275.884V277.516C584.316 279.5 584.252 280.652 584.316 280.972L583.644 286.06C584.156 286.252 585.98 286.348 589.116 286.348H593.916C596.732 286.348 598.492 286.348 599.196 286.348C599.964 286.284 600.444 286.06 600.636 285.676C600.892 285.292 601.084 284.78 601.212 284.14C601.34 283.5 601.436 282.764 601.5 281.932C601.564 281.1 601.628 280.588 601.692 280.396C602.076 280.076 602.172 278.7 601.98 276.268C601.98 276.076 602.108 275.596 602.364 274.828C602.364 273.932 602.492 272.908 602.748 271.756C602.748 270.54 602.94 269.484 603.324 268.588C603.772 267.628 604.092 266.828 604.284 266.188C604.604 265.1 605.372 264.172 606.588 263.404C608.188 262.252 609.724 261.516 611.196 261.196H612.924C614.652 261.516 615.228 263.148 614.652 266.092C614.652 267.052 614.396 268.3 613.884 269.836C613.308 272.844 613.02 274.796 613.02 275.692C613.02 276.588 612.764 278.22 612.252 280.588C612.38 281.804 612.38 282.604 612.252 282.988C612.188 283.372 612.156 283.852 612.156 284.428C612.028 285.836 611.964 286.796 611.964 287.308C611.836 289.228 611.772 290.764 611.772 291.916C611.772 293.068 611.676 294.316 611.484 295.66C611.484 297.004 611.26 298.38 610.812 299.788L610.524 305.932C610.524 306.38 610.748 309.676 611.196 315.82C611.58 316.204 611.708 316.972 611.58 318.124C611.452 319.212 611.228 319.98 610.908 320.428C610.588 320.876 610.236 321.132 609.852 321.196C609.532 321.26 609.02 321.292 608.316 321.292C606.844 322.124 605.66 322.444 604.764 322.252C603.996 322.252 603.196 321.996 602.364 321.484C601.02 320.78 600.156 319.916 599.772 318.892C599.772 318.444 599.676 317.9 599.484 317.26C599.356 316.62 599.356 315.948 599.484 315.244C599.612 314.476 599.644 313.676 599.58 312.844C599.58 312.012 599.58 311.052 599.58 309.964L599.676 308.812C599.548 308.556 599.612 308.14 599.868 307.564C600.124 306.988 600.156 306.54 599.964 306.22V303.628L600.444 298.732C599.804 298.284 599.772 297.228 600.348 295.564L600.54 294.796C599.772 294.988 599.068 295.084 598.428 295.084C596.636 295.532 594.652 295.756 592.476 295.756L583.836 295.468V296.524C583.708 297.548 583.676 299.084 583.74 301.132V302.956C583.804 304.62 583.836 306.988 583.836 310.06C584.092 313.388 584.22 315.788 584.22 317.26L584.124 317.932C584.124 318.444 584.06 318.892 583.932 319.276C583.932 320.492 583.612 321.324 582.972 321.772C582.396 322.22 581.436 322.508 580.092 322.636C578.748 322.764 577.532 322.412 576.444 321.58C574.908 320.812 574.108 320.172 574.044 319.66C573.98 319.148 573.788 318.476 573.468 317.644C573.148 317.132 572.924 316.524 572.796 315.82C572.796 313.772 572.764 312.62 572.7 312.364C572.508 312.108 572.412 311.66 572.412 311.02C572.412 310.188 572.22 308.876 571.836 307.084Z" fill="#B21B1B"/>
<path d="M243.668 437.012C243.54 437.268 243.476 437.492 243.476 437.684C243.476 437.876 243.412 438.1 243.284 438.356C243.156 438.548 243.06 438.708 242.996 438.836C241.076 441.396 239.572 442.964 238.484 443.54C237.396 444.052 236.148 444.052 234.74 443.54C234.036 443.284 233.044 442.196 231.764 440.276C230.484 437.78 230.74 435.188 232.532 432.5C232.916 431.412 233.364 430.452 233.876 429.62C234.388 428.724 234.9 427.636 235.412 426.356L236.564 424.34C237.076 422.804 237.46 421.812 237.716 421.364C238.036 420.852 238.484 420.244 239.06 419.54C239.636 418.836 240.116 418.196 240.5 417.62C241.716 415.38 243.476 413.012 245.78 410.516C244.436 407.636 243.572 405.588 243.188 404.372L242.036 401.972C241.46 401.524 240.98 400.788 240.596 399.764C237.908 395.22 236.5 392.756 236.372 392.372C236.244 391.988 235.86 391.284 235.22 390.26C233.876 388.084 233.204 386.292 233.204 384.884C233.204 383.476 233.556 382.42 234.26 381.716C235.028 381.012 236.084 380.724 237.428 380.852C237.62 380.852 238.004 380.852 238.58 380.852C239.156 380.788 239.54 380.788 239.732 380.852C239.988 380.852 240.34 380.948 240.788 381.14C241.3 381.268 241.716 381.524 242.036 381.908C242.932 382.804 243.764 384.116 244.532 385.844L245.78 387.764L247.7 391.412L248.852 394.1C250.516 396.532 251.86 398.868 252.884 401.108C253.14 400.66 253.652 399.892 254.42 398.804C255.252 397.652 255.7 397.012 255.764 396.884C255.892 396.628 256.468 395.764 257.492 394.292L259.508 392.468C259.572 392.404 259.828 391.924 260.276 391.028L262.1 388.532C262.356 388.404 262.772 388.084 263.348 387.572C263.476 387.06 264.564 385.46 266.612 382.772C267.7 382.004 268.756 381.588 269.78 381.524C270.804 381.396 271.732 381.428 272.564 381.62C273.46 381.812 274.612 382.42 276.02 383.444C276.98 384.66 276.98 386.516 276.02 389.012C274.74 391.252 273.716 392.756 272.948 393.524L270.164 398.42L266.516 404.084C265.428 405.492 262.74 408.628 258.452 413.492C258.9 414.324 260.372 416.948 262.868 421.364L264.692 425.012C265.268 425.78 265.748 426.548 266.132 427.316L269.012 434.228C269.652 435.188 270.068 435.924 270.26 436.436C270.388 436.82 270.804 437.716 271.508 439.124C272.148 441.492 271.188 443.092 268.628 443.924C267.604 444.308 266.836 444.372 266.324 444.116C265.876 443.86 265.588 443.732 265.46 443.732C265.332 443.668 265.204 443.636 265.076 443.636C265.012 443.572 264.948 443.54 264.884 443.54C264.82 443.476 264.756 443.444 264.692 443.444C263.476 443.124 262.516 442.484 261.812 441.524L261.14 440.756L260.276 439.316C259.38 438.42 258.804 437.652 258.548 437.012L257.876 435.668C257.3 435.22 256.436 433.332 255.284 430.004C255.22 429.94 254.1 427.284 251.924 422.036C251.86 422.164 251.508 422.868 250.868 424.148L248.276 429.14C248.084 429.716 247.508 430.644 246.548 431.924C246.548 432.436 245.588 434.132 243.668 437.012Z" fill="#B21B1B"/>
<path d="M572.108 450.532L572.972 455.14V457.348C573.548 459.076 573.964 460.836 574.22 462.628C575.244 468.516 575.82 471.908 575.948 472.804C576.076 473.7 576.204 474.532 576.332 475.3C576.524 476.068 576.556 476.516 576.428 476.644C576.492 477.156 576.524 477.604 576.524 477.988C576.588 478.308 576.652 478.596 576.716 478.852C576.844 479.044 576.94 479.172 577.004 479.236C577.132 479.3 577.26 479.268 577.388 479.14C577.772 478.884 578.316 477.572 579.02 475.204C579.788 473.604 580.3 472.132 580.556 470.788C580.684 470.02 580.972 468.804 581.42 467.14C581.868 465.796 582.284 464.516 582.668 463.3C583.116 462.212 583.436 461.06 583.628 459.844C583.82 458.564 583.916 457.86 583.916 457.732C583.98 457.54 584.108 457.22 584.3 456.772C584.94 454.916 585.26 453.508 585.26 452.548C585.26 451.524 585.388 450.436 585.644 449.284C585.644 447.684 586.092 445.54 586.988 442.852C586.988 442.724 587.18 441.956 587.564 440.548C587.948 439.076 588.428 437.732 589.004 436.516C590.028 433.828 591.884 432.004 594.572 431.044C595.66 430.724 596.844 430.564 598.124 430.564C599.468 430.564 600.364 430.724 600.812 431.044C601.324 431.364 601.612 432.068 601.676 433.156C601.548 433.54 601.452 434.148 601.388 434.98L598.412 444.196L597.164 447.364L596.012 449.668C596.012 449.796 595.852 450.18 595.532 450.82L594.572 453.988C594.444 454.948 594.284 455.588 594.092 455.908L592.46 461.284C592.204 461.54 591.98 462.308 591.788 463.588C591.276 465.316 590.828 466.532 590.444 467.236C589.996 468.516 589.772 469.412 589.772 469.924C589.772 470.436 589.612 471.172 589.292 472.132C588.972 473.028 588.748 473.54 588.62 473.668C588.556 473.732 588.428 474.148 588.236 474.916C588.044 475.684 587.948 476.452 587.948 477.22C587.692 477.348 587.564 477.924 587.564 478.948C587.18 479.78 586.924 480.964 586.796 482.5C586.476 483.076 586.284 483.908 586.22 484.996C585.58 487.428 584.748 489.348 583.724 490.756C582.7 492.1 581.228 492.932 579.308 493.252C577.388 493.7 576.044 493.7 575.276 493.252C575.02 493.316 574.604 493.252 574.028 493.06C573.708 493.06 573.484 492.996 573.356 492.868C572.908 492.868 572.204 492.58 571.244 492.004C570.54 491.748 569.9 491.332 569.324 490.756C568.812 490.116 568.236 489.38 567.596 488.548C567.468 488.228 567.084 487.588 566.444 486.628C566.252 484.964 565.996 483.972 565.676 483.652C565.548 483.332 565.484 483.108 565.484 482.98L564.908 480.676C564.972 480.74 565.036 480.868 565.1 481.06C564.972 479.204 564.94 477.668 565.004 476.452C564.748 475.812 564.748 474.852 565.004 473.572C565.004 472.548 564.908 471.652 564.716 470.884C564.012 469.092 563.628 467.844 563.564 467.14C563.564 466.436 563.468 465.316 563.276 463.78C563.276 462.116 563.212 460.676 563.084 459.46L561.452 450.244C561.068 448.196 560.908 447.012 560.972 446.692C561.036 446.308 561.036 446.084 560.972 446.02C560.972 445.892 560.94 445.668 560.876 445.348C560.876 445.028 560.844 444.612 560.78 444.1C560.332 443.076 560.076 442.244 560.012 441.604C557.708 435.972 558.156 432.836 561.356 432.196C561.74 432.068 562.572 432.004 563.852 432.004C565.196 432.004 566.06 432.068 566.444 432.196C566.828 432.26 567.308 432.484 567.884 432.868C569.356 433.764 570.412 437.348 571.052 443.62C571.564 446.948 571.852 448.836 571.916 449.284C572.044 449.668 572.108 450.084 572.108 450.532Z" fill="#B21B1B"/>
<path d="M824.62 503.204C824.94 502.244 824.908 500.196 824.524 497.06C824.524 496.036 824.236 494.532 823.66 492.548C819.308 493.252 817.004 493.604 816.748 493.604C814.508 493.924 812.94 494.084 812.044 494.084C811.212 494.084 810.668 494.052 810.412 493.988C809.9 493.86 809.644 493.316 809.644 492.356C809.644 491.332 809.9 490.436 810.412 489.668C810.924 488.836 811.404 488.324 811.852 488.132C812.812 487.556 814.22 486.948 816.076 486.308C816.076 486.18 817.644 485.668 820.78 484.772C822.764 483.876 825.292 483.236 828.364 482.852C828.62 482.788 828.812 482.756 828.94 482.756L830.572 482.468H833.356L835.564 483.14C836.396 483.396 837.708 484.324 839.5 485.924L839.692 486.5C840.204 486.884 840.46 487.14 840.46 487.268C840.46 487.396 840.492 487.588 840.556 487.844C840.556 489.444 840.108 490.404 839.212 490.724C838.956 490.788 838.252 490.756 837.1 490.628C834.924 490.372 833.548 490.436 832.972 490.82C832.972 491.46 833.068 492.004 833.26 492.452C833.452 492.836 833.836 494.532 834.412 497.54C834.412 497.988 834.668 499.364 835.18 501.668C835.756 503.908 836.108 506.436 836.236 509.252C836.94 510.788 837.292 515.044 837.292 522.02C837.356 522.404 837.388 522.948 837.388 523.652C837.196 524.036 837.1 524.996 837.1 526.532C836.972 527.044 836.908 527.684 836.908 528.452C836.78 528.9 836.684 529.476 836.62 530.18C836.556 530.82 836.492 531.332 836.428 531.716C836.236 532.804 835.948 533.54 835.564 533.924C835.244 534.244 834.988 535.172 834.796 536.708C834.796 536.836 834.54 537.284 834.028 538.052C833.58 538.82 833.164 539.332 832.78 539.588L832.012 540.452C832.012 540.836 831.372 541.668 830.092 542.948L829.42 543.716C829.036 543.972 828.204 544.804 826.924 546.212C826.86 546.468 826.092 546.82 824.62 547.268C823.212 547.716 821.676 547.716 820.012 547.268C819.116 547.14 818.156 546.564 817.132 545.54C816.876 545.604 816.716 545.604 816.652 545.54C816.14 545.028 815.116 544.452 813.58 543.812C813.452 543.94 812.684 543.364 811.276 542.084C810.956 542.02 809.772 540.804 807.724 538.436C807.66 538.116 807.34 537.38 806.764 536.228C806.764 536.164 806.604 535.652 806.284 534.692C806.028 533.668 805.836 532.228 805.708 530.372V529.7C805.708 529.316 806.092 528.164 806.86 526.244C808.14 524.772 809.74 524.74 811.66 526.148C811.852 527.172 812.204 528.1 812.716 528.932C813.228 529.7 813.58 530.436 813.772 531.14C814.22 532.74 815.372 534.596 817.228 536.708C817.932 537.412 818.892 537.796 820.108 537.86C820.364 537.796 821.356 537.028 823.084 535.556C823.34 535.3 823.596 534.852 823.852 534.212C824.492 533.316 824.812 532.772 824.812 532.58C824.876 532.388 825.036 531.94 825.292 531.236C825.292 531.172 825.548 530.468 826.06 529.124C826.636 528.1 826.764 526.564 826.444 524.516C826.38 524.452 826.348 524.228 826.348 523.844C826.156 522.308 826.028 521.38 825.964 521.06V520.196C825.9 520.132 825.868 520.036 825.868 519.908L826.06 517.988C825.804 517.604 825.516 516.58 825.196 514.916C824.556 512.164 824.492 509.924 825.004 508.196C825.004 508.132 824.94 507.876 824.812 507.428C824.684 506.916 824.652 506.436 824.716 505.988L824.62 503.204Z" fill="#B21B1B"/>
<path d="M245.952 527.248C246.848 526.864 248.704 526.736 251.52 526.864C254.336 526.928 256.352 527.184 257.568 527.632L259.968 528.4C261.952 529.744 263.072 530.416 263.328 530.416C265.952 532.464 267.456 535.152 267.84 538.48C268.224 539.888 268.288 541.168 268.032 542.32C268.032 542.704 267.904 543.536 267.648 544.816L266.688 547.024L265.536 548.656C265.152 548.72 264.928 548.752 264.864 548.752C262.496 549.136 260.672 549.2 259.392 548.944C258.112 548.624 256.992 547.92 256.032 546.832C255.84 546.448 255.744 546.096 255.744 545.776C255.808 545.456 255.904 545.168 256.032 544.912L256.512 543.376C257.344 541.328 257.28 539.6 256.32 538.192C256.32 538 256 537.648 255.36 537.136C254.72 536.624 254.208 536.24 253.824 535.984C253.504 535.728 252.896 535.696 252 535.888C250.464 536.528 249.152 538.48 248.064 541.744C246.784 543.408 245.888 545.584 245.376 548.272C244.608 553.072 244.224 555.792 244.224 556.432L244.128 558.544V559.408C244 559.536 244.064 562.32 244.32 567.76C244.384 568.08 244.512 568.528 244.704 569.104C244.896 569.808 245.184 570.96 245.568 572.56L246.816 574.672C247.136 574.864 247.552 575.44 248.064 576.4C248.384 576.4 248.64 576.624 248.832 577.072C249.28 577.52 249.472 577.776 249.408 577.84C249.728 577.904 250.208 578.096 250.848 578.416C252.576 579.312 254.08 579.12 255.36 577.84C255.808 577.392 256.352 576.784 256.992 576.016C257.696 575.184 258.208 574.544 258.528 574.096C258.912 573.584 259.488 573.104 260.256 572.656C262.368 571.056 264.192 571.12 265.728 572.848C266.048 573.36 266.08 574.608 265.824 576.592C265.632 578.512 264.736 580.528 263.136 582.64C263.008 583.024 262.592 583.664 261.888 584.56C261.184 585.392 260.448 586.064 259.68 586.576C259.552 587.024 257.12 587.344 252.384 587.536C252.128 587.536 251.616 587.472 250.848 587.344C250.144 587.536 249.184 587.44 247.968 587.056C246.816 586.672 246.176 586.48 246.048 586.48L244.8 586.192C244.288 586.192 243.776 586.032 243.264 585.712C242.752 585.392 241.888 584.848 240.672 584.08C239.52 583.248 238.624 582.576 237.984 582.064C236.064 580.528 234.688 578.768 233.856 576.784C233.6 576.336 233.44 575.728 233.376 574.96C233.312 574.128 233.184 573.52 232.992 573.136C232.48 572.624 232.224 571.792 232.224 570.64C232.288 569.488 232.224 568.08 232.032 566.416C232.032 565.648 232.064 565.2 232.128 565.072C231.808 564.752 231.68 564.208 231.744 563.44C231.808 562.608 231.84 561.488 231.84 560.08C232.032 559.696 232.096 558.576 232.032 556.72C232.032 554.8 232.096 553.36 232.224 552.4C231.968 551.824 231.936 550.992 232.128 549.904L232.224 547.024C232.288 545.872 232.576 544.656 233.088 543.376C233.152 542.8 233.28 542.128 233.472 541.36C233.664 540.528 234.496 538.896 235.968 536.464C235.968 535.952 236.448 535.312 237.408 534.544C237.408 534.288 237.664 533.904 238.176 533.392C238.688 532.88 239.264 532.24 239.904 531.472C240.8 530.384 241.792 529.584 242.88 529.072C243.968 528.56 244.992 527.952 245.952 527.248Z" fill="#B21B1B"/>
<path d="M417.34 535.756L418.876 532.492C419.196 531.596 419.324 530.892 419.26 530.38C419.26 529.868 419.26 529.452 419.26 529.132C419.26 528.812 419.228 528.428 419.164 527.98C419.1 527.468 418.876 526.988 418.492 526.54C418.172 526.028 417.82 525.708 417.436 525.58C417.116 525.388 416.476 525.1 415.516 524.716L413.404 524.62C411.484 524.236 409.852 524.396 408.508 525.1C408.508 526.508 408.156 529.452 407.452 533.932L406.876 540.556L406.396 544.012C406.844 544.012 407.996 543.66 409.852 542.956L411.196 541.804C411.452 541.74 412.252 541.036 413.596 539.692C413.916 539.564 414.268 539.244 414.652 538.732L415.612 537.58C415.804 537.644 416.156 537.324 416.668 536.62L417.34 535.756ZM406.204 561.388L406.396 563.692C406.652 564.268 406.652 565.1 406.396 566.188C406.14 567.276 406.108 568.108 406.3 568.684C406.3 569.772 406.332 570.412 406.396 570.604C406.972 570.604 407.836 570.348 408.988 569.836C410.204 569.324 410.972 569.036 411.292 568.972C411.612 568.908 412.028 568.652 412.54 568.204C414.14 567.372 415.804 566.412 417.532 565.324L419.74 563.308C421.596 561.068 422.876 559.436 423.58 558.412L424.156 556.684C424.988 554.892 424.188 553.196 421.756 551.596C421.244 550.828 420.188 550.316 418.588 550.06H418.492C416.252 549.42 414.94 549.164 414.556 549.292L410.332 550.252C409.564 550.636 408.86 550.828 408.22 550.828C407.644 550.828 407.004 550.54 406.3 549.964L406.396 552.652C405.948 553.868 405.82 555.052 406.012 556.204C406.268 557.356 406.332 559.084 406.204 561.388ZM410.428 578.476H409.564C408.924 578.604 407.676 578.508 405.82 578.188C402.556 577.676 399.932 576.652 397.948 575.116C397.372 574.604 396.7 573.932 395.932 573.1C395.228 572.204 394.876 571.596 394.876 571.276C394.876 570.956 394.876 570.54 394.876 570.028C394.94 569.516 394.908 569.004 394.78 568.492V567.724C394.588 567.34 394.62 566.668 394.876 565.708C395.132 564.684 395.196 563.852 395.068 563.212C394.94 562.38 394.844 561.484 394.78 560.524C394.588 560.268 394.684 559.564 395.068 558.412C395.58 549.772 395.836 545.036 395.836 544.204L396.316 541.324C395.996 539.404 396.06 537.74 396.508 536.332V534.22C396.444 533.324 396.7 530.732 397.276 526.444C397.02 525.676 396.156 524.684 394.684 523.468C394.364 523.148 394.044 522.668 393.724 522.028C393.404 521.324 393.532 520.236 394.108 518.764C394.492 518.252 395.612 517.42 397.468 516.268C397.596 515.884 399.324 515.148 402.652 514.06L404.476 513.292C405.372 512.972 407.164 512.844 409.852 512.908C411.324 513.1 412.508 513.388 413.404 513.772C416.668 515.372 419.676 517.196 422.428 519.244C423.26 519.628 423.836 520.14 424.156 520.78C425.308 521.548 426.364 522.796 427.324 524.524C428.348 526.188 428.924 527.244 429.052 527.692C429.372 529.74 429.052 532.204 428.092 535.084C427.644 536.556 425.532 539.628 421.756 544.3C422.396 544.492 423.484 545.036 425.02 545.932C425.212 546.188 425.884 546.636 427.036 547.276C427.164 547.468 427.324 547.692 427.516 547.948C427.772 548.204 427.964 548.428 428.092 548.62L428.86 549.1L429.82 550.54L431.26 551.788C431.9 552.428 432.412 553.132 432.796 553.9C433.756 554.796 434.268 555.532 434.332 556.108L434.524 557.932C434.46 558.636 433.5 560.94 431.644 564.844C430.94 566.252 430.044 567.34 428.956 568.108L427.516 569.836C427.132 570.348 426.396 570.988 425.308 571.756C424.284 572.524 423.42 573.26 422.716 573.964C422.396 574.092 421.884 574.38 421.18 574.828C420.54 575.276 419.548 575.82 418.204 576.46C416.924 577.1 416.06 577.484 415.612 577.612C414.332 577.996 412.604 578.284 410.428 578.476Z" fill="#B21B1B"/>
</svg>
