<svg width="1072" height="745" viewBox="0 0 1072 745" fill="none" xmlns="http://www.w3.org/2000/svg">
<rect width="1072" height="745" fill="#C6A076"/>
<g filter="url(#filter0_d_69_10807)">
<rect width="1008" height="691" transform="translate(32 27)" fill="#EFE9D7"/>
<circle cx="61" cy="56" r="9" fill="#A48462"/>
<circle cx="61" cy="81" r="9" fill="#A48462"/>
<circle cx="61" cy="106" r="9" fill="#A48462"/>
<circle cx="61" cy="131" r="9" fill="#A48462"/>
<circle cx="61" cy="156" r="9" fill="#A48462"/>
<circle cx="61" cy="181" r="9" fill="#A48462"/>
<circle cx="61" cy="206" r="9" fill="#A48462"/>
<circle cx="61" cy="231" r="9" fill="#A48462"/>
<circle cx="61" cy="256" r="9" fill="#A48462"/>
<circle cx="61" cy="281" r="9" fill="#A48462"/>
<circle cx="61" cy="306" r="9" fill="#A48462"/>
<circle cx="61" cy="331" r="9" fill="#A48462"/>
<circle cx="61" cy="356" r="9" fill="#A48462"/>
<circle cx="61" cy="381" r="9" fill="#A48462"/>
<circle cx="61" cy="406" r="9" fill="#A48462"/>
<circle cx="61" cy="431" r="9" fill="#A48462"/>
<circle cx="61" cy="456" r="9" fill="#A48462"/>
<circle cx="61" cy="481" r="9" fill="#A48462"/>
<circle cx="61" cy="506" r="9" fill="#A48462"/>
<circle cx="61" cy="531" r="9" fill="#A48462"/>
<circle cx="61" cy="556" r="9" fill="#A48462"/>
<circle cx="61" cy="581" r="9" fill="#A48462"/>
<circle cx="61" cy="606" r="9" fill="#A48462"/>
<circle cx="61" cy="631" r="9" fill="#A48462"/>
<circle cx="61" cy="656" r="9" fill="#A48462"/>
<circle cx="61" cy="681" r="9" fill="#A48462"/>
<g opacity="0.1">
<rect width="874" height="612" transform="translate(129 56)" fill="#EFE9D7"/>
<g clip-path="url(#clip0_69_10807)">
<rect x="129" y="56" width="874" height="612" rx="4" fill="#EFE9D7"/>
<g clip-path="url(#clip1_69_10807)">
<rect width="874" height="36" transform="translate(129 56)" fill="white" fill-opacity="0.01"/>
<mask id="path-29-inside-1_69_10807" fill="white">
<path d="M129 56H191.429V92H129V56Z"/>
</mask>
<path d="M129 56H191.429V92H129V56Z" fill="white" fill-opacity="0.05"/>
<path d="M129 56V55H128V56H129ZM129 57H191.429V55H129V57ZM130 92V56H128V92H130Z" fill="#5B5B5B" mask="url(#path-29-inside-1_69_10807)"/>
<mask id="path-31-inside-2_69_10807" fill="white">
<path d="M191.429 56H253.857V92H191.429V56Z"/>
</mask>
<path d="M191.429 56H253.857V92H191.429V56Z" fill="white" fill-opacity="0.05"/>
<path d="M191.429 56V55H190.429V56H191.429ZM191.429 57H253.857V55H191.429V57ZM192.429 92V56H190.429V92H192.429Z" fill="#5B5B5B" mask="url(#path-31-inside-2_69_10807)"/>
<mask id="path-33-inside-3_69_10807" fill="white">
<path d="M253.857 56H316.286V92H253.857V56Z"/>
</mask>
<path d="M253.857 56H316.286V92H253.857V56Z" fill="white" fill-opacity="0.05"/>
<path d="M253.857 56V55H252.857V56H253.857ZM253.857 57H316.286V55H253.857V57ZM254.857 92V56H252.857V92H254.857Z" fill="#5B5B5B" mask="url(#path-33-inside-3_69_10807)"/>
<mask id="path-35-inside-4_69_10807" fill="white">
<path d="M316.286 56H378.714V92H316.286V56Z"/>
</mask>
<path d="M316.286 56H378.714V92H316.286V56Z" fill="white" fill-opacity="0.05"/>
<path d="M316.286 56V55H315.286V56H316.286ZM316.286 57H378.714V55H316.286V57ZM317.286 92V56H315.286V92H317.286Z" fill="#5B5B5B" mask="url(#path-35-inside-4_69_10807)"/>
<mask id="path-37-inside-5_69_10807" fill="white">
<path d="M378.714 56H441.143V92H378.714V56Z"/>
</mask>
<path d="M378.714 56H441.143V92H378.714V56Z" fill="white" fill-opacity="0.05"/>
<path d="M378.714 56V55H377.714V56H378.714ZM378.714 57H441.143V55H378.714V57ZM379.714 92V56H377.714V92H379.714Z" fill="#5B5B5B" mask="url(#path-37-inside-5_69_10807)"/>
<mask id="path-39-inside-6_69_10807" fill="white">
<path d="M441.143 56H503.571V92H441.143V56Z"/>
</mask>
<path d="M441.143 56H503.571V92H441.143V56Z" fill="white" fill-opacity="0.05"/>
<path d="M441.143 56V55H440.143V56H441.143ZM441.143 57H503.571V55H441.143V57ZM442.143 92V56H440.143V92H442.143Z" fill="#5B5B5B" mask="url(#path-39-inside-6_69_10807)"/>
<mask id="path-41-inside-7_69_10807" fill="white">
<path d="M503.571 56H566V92H503.571V56Z"/>
</mask>
<path d="M503.571 56H566V92H503.571V56Z" fill="white" fill-opacity="0.05"/>
<path d="M503.571 56V55H502.571V56H503.571ZM503.571 57H566V55H503.571V57ZM504.571 92V56H502.571V92H504.571Z" fill="#5B5B5B" mask="url(#path-41-inside-7_69_10807)"/>
<mask id="path-43-inside-8_69_10807" fill="white">
<path d="M566 56H628.429V92H566V56Z"/>
</mask>
<path d="M566 56H628.429V92H566V56Z" fill="white" fill-opacity="0.05"/>
<path d="M566 56V55H565V56H566ZM566 57H628.429V55H566V57ZM567 92V56H565V92H567Z" fill="#5B5B5B" mask="url(#path-43-inside-8_69_10807)"/>
<mask id="path-45-inside-9_69_10807" fill="white">
<path d="M628.429 56H690.857V92H628.429V56Z"/>
</mask>
<path d="M628.429 56H690.857V92H628.429V56Z" fill="white" fill-opacity="0.05"/>
<path d="M628.429 56V55H627.429V56H628.429ZM628.429 57H690.857V55H628.429V57ZM629.429 92V56H627.429V92H629.429Z" fill="#5B5B5B" mask="url(#path-45-inside-9_69_10807)"/>
<mask id="path-47-inside-10_69_10807" fill="white">
<path d="M690.857 56H753.285V92H690.857V56Z"/>
</mask>
<path d="M690.857 56H753.285V92H690.857V56Z" fill="white" fill-opacity="0.05"/>
<path d="M690.857 56V55H689.857V56H690.857ZM690.857 57H753.285V55H690.857V57ZM691.857 92V56H689.857V92H691.857Z" fill="#5B5B5B" mask="url(#path-47-inside-10_69_10807)"/>
<mask id="path-49-inside-11_69_10807" fill="white">
<path d="M753.286 56H815.714V92H753.286V56Z"/>
</mask>
<path d="M753.286 56H815.714V92H753.286V56Z" fill="white" fill-opacity="0.05"/>
<path d="M753.286 56V55H752.286V56H753.286ZM753.286 57H815.714V55H753.286V57ZM754.286 92V56H752.286V92H754.286Z" fill="#5B5B5B" mask="url(#path-49-inside-11_69_10807)"/>
<mask id="path-51-inside-12_69_10807" fill="white">
<path d="M815.714 56H878.143V92H815.714V56Z"/>
</mask>
<path d="M815.714 56H878.143V92H815.714V56Z" fill="white" fill-opacity="0.05"/>
<path d="M815.714 56V55H814.714V56H815.714ZM815.714 57H878.143V55H815.714V57ZM816.714 92V56H814.714V92H816.714Z" fill="#5B5B5B" mask="url(#path-51-inside-12_69_10807)"/>
<mask id="path-53-inside-13_69_10807" fill="white">
<path d="M878.143 56H940.571V92H878.143V56Z"/>
</mask>
<path d="M878.143 56H940.571V92H878.143V56Z" fill="white" fill-opacity="0.05"/>
<path d="M878.143 56V55H877.143V56H878.143ZM878.143 57H940.571V55H878.143V57ZM879.143 92V56H877.143V92H879.143Z" fill="#5B5B5B" mask="url(#path-53-inside-13_69_10807)"/>
<mask id="path-55-inside-14_69_10807" fill="white">
<path d="M940.571 56H1003V92H940.571V56Z"/>
</mask>
<path d="M940.571 56H1003V92H940.571V56Z" fill="white" fill-opacity="0.05"/>
<path d="M940.571 56V55H939.571V56H940.571ZM940.571 57H1003V55H940.571V57ZM941.571 92V56H939.571V92H941.571Z" fill="#5B5B5B" mask="url(#path-55-inside-14_69_10807)"/>
</g>
<g clip-path="url(#clip2_69_10807)">
<rect width="874" height="36" transform="translate(129 92)" fill="white" fill-opacity="0.01"/>
<mask id="path-57-inside-15_69_10807" fill="white">
<path d="M129 92H191.429V128H129V92Z"/>
</mask>
<path d="M129 92H191.429V128H129V92Z" fill="white" fill-opacity="0.05"/>
<path d="M129 92V91H128V92H129ZM129 93H191.429V91H129V93ZM130 128V92H128V128H130Z" fill="#5B5B5B" mask="url(#path-57-inside-15_69_10807)"/>
<mask id="path-59-inside-16_69_10807" fill="white">
<path d="M191.429 92H253.857V128H191.429V92Z"/>
</mask>
<path d="M191.429 92H253.857V128H191.429V92Z" fill="white" fill-opacity="0.05"/>
<path d="M191.429 92V91H190.429V92H191.429ZM191.429 93H253.857V91H191.429V93ZM192.429 128V92H190.429V128H192.429Z" fill="#5B5B5B" mask="url(#path-59-inside-16_69_10807)"/>
<mask id="path-61-inside-17_69_10807" fill="white">
<path d="M253.857 92H316.286V128H253.857V92Z"/>
</mask>
<path d="M253.857 92H316.286V128H253.857V92Z" fill="white" fill-opacity="0.05"/>
<path d="M253.857 92V91H252.857V92H253.857ZM253.857 93H316.286V91H253.857V93ZM254.857 128V92H252.857V128H254.857Z" fill="#5B5B5B" mask="url(#path-61-inside-17_69_10807)"/>
<mask id="path-63-inside-18_69_10807" fill="white">
<path d="M316.286 92H378.714V128H316.286V92Z"/>
</mask>
<path d="M316.286 92H378.714V128H316.286V92Z" fill="white" fill-opacity="0.05"/>
<path d="M316.286 92V91H315.286V92H316.286ZM316.286 93H378.714V91H316.286V93ZM317.286 128V92H315.286V128H317.286Z" fill="#5B5B5B" mask="url(#path-63-inside-18_69_10807)"/>
<mask id="path-65-inside-19_69_10807" fill="white">
<path d="M378.714 92H441.143V128H378.714V92Z"/>
</mask>
<path d="M378.714 92H441.143V128H378.714V92Z" fill="white" fill-opacity="0.05"/>
<path d="M378.714 92V91H377.714V92H378.714ZM378.714 93H441.143V91H378.714V93ZM379.714 128V92H377.714V128H379.714Z" fill="#5B5B5B" mask="url(#path-65-inside-19_69_10807)"/>
<mask id="path-67-inside-20_69_10807" fill="white">
<path d="M441.143 92H503.571V128H441.143V92Z"/>
</mask>
<path d="M441.143 92H503.571V128H441.143V92Z" fill="white" fill-opacity="0.05"/>
<path d="M441.143 92V91H440.143V92H441.143ZM441.143 93H503.571V91H441.143V93ZM442.143 128V92H440.143V128H442.143Z" fill="#5B5B5B" mask="url(#path-67-inside-20_69_10807)"/>
<mask id="path-69-inside-21_69_10807" fill="white">
<path d="M503.571 92H566V128H503.571V92Z"/>
</mask>
<path d="M503.571 92H566V128H503.571V92Z" fill="white" fill-opacity="0.05"/>
<path d="M503.571 92V91H502.571V92H503.571ZM503.571 93H566V91H503.571V93ZM504.571 128V92H502.571V128H504.571Z" fill="#5B5B5B" mask="url(#path-69-inside-21_69_10807)"/>
<mask id="path-71-inside-22_69_10807" fill="white">
<path d="M566 92H628.429V128H566V92Z"/>
</mask>
<path d="M566 92H628.429V128H566V92Z" fill="white" fill-opacity="0.05"/>
<path d="M566 92V91H565V92H566ZM566 93H628.429V91H566V93ZM567 128V92H565V128H567Z" fill="#5B5B5B" mask="url(#path-71-inside-22_69_10807)"/>
<mask id="path-73-inside-23_69_10807" fill="white">
<path d="M628.429 92H690.857V128H628.429V92Z"/>
</mask>
<path d="M628.429 92H690.857V128H628.429V92Z" fill="white" fill-opacity="0.05"/>
<path d="M628.429 92V91H627.429V92H628.429ZM628.429 93H690.857V91H628.429V93ZM629.429 128V92H627.429V128H629.429Z" fill="#5B5B5B" mask="url(#path-73-inside-23_69_10807)"/>
<mask id="path-75-inside-24_69_10807" fill="white">
<path d="M690.857 92H753.285V128H690.857V92Z"/>
</mask>
<path d="M690.857 92H753.285V128H690.857V92Z" fill="white" fill-opacity="0.05"/>
<path d="M690.857 92V91H689.857V92H690.857ZM690.857 93H753.285V91H690.857V93ZM691.857 128V92H689.857V128H691.857Z" fill="#5B5B5B" mask="url(#path-75-inside-24_69_10807)"/>
<mask id="path-77-inside-25_69_10807" fill="white">
<path d="M753.286 92H815.714V128H753.286V92Z"/>
</mask>
<path d="M753.286 92H815.714V128H753.286V92Z" fill="white" fill-opacity="0.05"/>
<path d="M753.286 92V91H752.286V92H753.286ZM753.286 93H815.714V91H753.286V93ZM754.286 128V92H752.286V128H754.286Z" fill="#5B5B5B" mask="url(#path-77-inside-25_69_10807)"/>
<mask id="path-79-inside-26_69_10807" fill="white">
<path d="M815.714 92H878.143V128H815.714V92Z"/>
</mask>
<path d="M815.714 92H878.143V128H815.714V92Z" fill="white" fill-opacity="0.05"/>
<path d="M815.714 92V91H814.714V92H815.714ZM815.714 93H878.143V91H815.714V93ZM816.714 128V92H814.714V128H816.714Z" fill="#5B5B5B" mask="url(#path-79-inside-26_69_10807)"/>
<mask id="path-81-inside-27_69_10807" fill="white">
<path d="M878.143 92H940.571V128H878.143V92Z"/>
</mask>
<path d="M878.143 92H940.571V128H878.143V92Z" fill="white" fill-opacity="0.05"/>
<path d="M878.143 92V91H877.143V92H878.143ZM878.143 93H940.571V91H878.143V93ZM879.143 128V92H877.143V128H879.143Z" fill="#5B5B5B" mask="url(#path-81-inside-27_69_10807)"/>
<mask id="path-83-inside-28_69_10807" fill="white">
<path d="M940.571 92H1003V128H940.571V92Z"/>
</mask>
<path d="M940.571 92H1003V128H940.571V92Z" fill="white" fill-opacity="0.05"/>
<path d="M940.571 92V91H939.571V92H940.571ZM940.571 93H1003V91H940.571V93ZM941.571 128V92H939.571V128H941.571Z" fill="#5B5B5B" mask="url(#path-83-inside-28_69_10807)"/>
</g>
<g clip-path="url(#clip3_69_10807)">
<rect width="874" height="36" transform="translate(129 128)" fill="white" fill-opacity="0.01"/>
<mask id="path-85-inside-29_69_10807" fill="white">
<path d="M129 128H191.429V164H129V128Z"/>
</mask>
<path d="M129 128H191.429V164H129V128Z" fill="white" fill-opacity="0.05"/>
<path d="M129 128V127H128V128H129ZM129 129H191.429V127H129V129ZM130 164V128H128V164H130Z" fill="#5B5B5B" mask="url(#path-85-inside-29_69_10807)"/>
<mask id="path-87-inside-30_69_10807" fill="white">
<path d="M191.429 128H253.857V164H191.429V128Z"/>
</mask>
<path d="M191.429 128H253.857V164H191.429V128Z" fill="white" fill-opacity="0.05"/>
<path d="M191.429 128V127H190.429V128H191.429ZM191.429 129H253.857V127H191.429V129ZM192.429 164V128H190.429V164H192.429Z" fill="#5B5B5B" mask="url(#path-87-inside-30_69_10807)"/>
<mask id="path-89-inside-31_69_10807" fill="white">
<path d="M253.857 128H316.286V164H253.857V128Z"/>
</mask>
<path d="M253.857 128H316.286V164H253.857V128Z" fill="white" fill-opacity="0.05"/>
<path d="M253.857 128V127H252.857V128H253.857ZM253.857 129H316.286V127H253.857V129ZM254.857 164V128H252.857V164H254.857Z" fill="#5B5B5B" mask="url(#path-89-inside-31_69_10807)"/>
<mask id="path-91-inside-32_69_10807" fill="white">
<path d="M316.286 128H378.714V164H316.286V128Z"/>
</mask>
<path d="M316.286 128H378.714V164H316.286V128Z" fill="white" fill-opacity="0.05"/>
<path d="M316.286 128V127H315.286V128H316.286ZM316.286 129H378.714V127H316.286V129ZM317.286 164V128H315.286V164H317.286Z" fill="#5B5B5B" mask="url(#path-91-inside-32_69_10807)"/>
<mask id="path-93-inside-33_69_10807" fill="white">
<path d="M378.714 128H441.143V164H378.714V128Z"/>
</mask>
<path d="M378.714 128H441.143V164H378.714V128Z" fill="white" fill-opacity="0.05"/>
<path d="M378.714 128V127H377.714V128H378.714ZM378.714 129H441.143V127H378.714V129ZM379.714 164V128H377.714V164H379.714Z" fill="#5B5B5B" mask="url(#path-93-inside-33_69_10807)"/>
<mask id="path-95-inside-34_69_10807" fill="white">
<path d="M441.143 128H503.571V164H441.143V128Z"/>
</mask>
<path d="M441.143 128H503.571V164H441.143V128Z" fill="white" fill-opacity="0.05"/>
<path d="M441.143 128V127H440.143V128H441.143ZM441.143 129H503.571V127H441.143V129ZM442.143 164V128H440.143V164H442.143Z" fill="#5B5B5B" mask="url(#path-95-inside-34_69_10807)"/>
<mask id="path-97-inside-35_69_10807" fill="white">
<path d="M503.571 128H566V164H503.571V128Z"/>
</mask>
<path d="M503.571 128H566V164H503.571V128Z" fill="white" fill-opacity="0.05"/>
<path d="M503.571 128V127H502.571V128H503.571ZM503.571 129H566V127H503.571V129ZM504.571 164V128H502.571V164H504.571Z" fill="#5B5B5B" mask="url(#path-97-inside-35_69_10807)"/>
<mask id="path-99-inside-36_69_10807" fill="white">
<path d="M566 128H628.429V164H566V128Z"/>
</mask>
<path d="M566 128H628.429V164H566V128Z" fill="white" fill-opacity="0.05"/>
<path d="M566 128V127H565V128H566ZM566 129H628.429V127H566V129ZM567 164V128H565V164H567Z" fill="#5B5B5B" mask="url(#path-99-inside-36_69_10807)"/>
<mask id="path-101-inside-37_69_10807" fill="white">
<path d="M628.429 128H690.857V164H628.429V128Z"/>
</mask>
<path d="M628.429 128H690.857V164H628.429V128Z" fill="white" fill-opacity="0.05"/>
<path d="M628.429 128V127H627.429V128H628.429ZM628.429 129H690.857V127H628.429V129ZM629.429 164V128H627.429V164H629.429Z" fill="#5B5B5B" mask="url(#path-101-inside-37_69_10807)"/>
<mask id="path-103-inside-38_69_10807" fill="white">
<path d="M690.857 128H753.285V164H690.857V128Z"/>
</mask>
<path d="M690.857 128H753.285V164H690.857V128Z" fill="white" fill-opacity="0.05"/>
<path d="M690.857 128V127H689.857V128H690.857ZM690.857 129H753.285V127H690.857V129ZM691.857 164V128H689.857V164H691.857Z" fill="#5B5B5B" mask="url(#path-103-inside-38_69_10807)"/>
<mask id="path-105-inside-39_69_10807" fill="white">
<path d="M753.286 128H815.714V164H753.286V128Z"/>
</mask>
<path d="M753.286 128H815.714V164H753.286V128Z" fill="white" fill-opacity="0.05"/>
<path d="M753.286 128V127H752.286V128H753.286ZM753.286 129H815.714V127H753.286V129ZM754.286 164V128H752.286V164H754.286Z" fill="#5B5B5B" mask="url(#path-105-inside-39_69_10807)"/>
<mask id="path-107-inside-40_69_10807" fill="white">
<path d="M815.714 128H878.143V164H815.714V128Z"/>
</mask>
<path d="M815.714 128H878.143V164H815.714V128Z" fill="white" fill-opacity="0.05"/>
<path d="M815.714 128V127H814.714V128H815.714ZM815.714 129H878.143V127H815.714V129ZM816.714 164V128H814.714V164H816.714Z" fill="#5B5B5B" mask="url(#path-107-inside-40_69_10807)"/>
<mask id="path-109-inside-41_69_10807" fill="white">
<path d="M878.143 128H940.571V164H878.143V128Z"/>
</mask>
<path d="M878.143 128H940.571V164H878.143V128Z" fill="white" fill-opacity="0.05"/>
<path d="M878.143 128V127H877.143V128H878.143ZM878.143 129H940.571V127H878.143V129ZM879.143 164V128H877.143V164H879.143Z" fill="#5B5B5B" mask="url(#path-109-inside-41_69_10807)"/>
<mask id="path-111-inside-42_69_10807" fill="white">
<path d="M940.571 128H1003V164H940.571V128Z"/>
</mask>
<path d="M940.571 128H1003V164H940.571V128Z" fill="white" fill-opacity="0.05"/>
<path d="M940.571 128V127H939.571V128H940.571ZM940.571 129H1003V127H940.571V129ZM941.571 164V128H939.571V164H941.571Z" fill="#5B5B5B" mask="url(#path-111-inside-42_69_10807)"/>
</g>
<g clip-path="url(#clip4_69_10807)">
<rect width="874" height="36" transform="translate(129 164)" fill="white" fill-opacity="0.01"/>
<mask id="path-113-inside-43_69_10807" fill="white">
<path d="M129 164H191.429V200H129V164Z"/>
</mask>
<path d="M129 164H191.429V200H129V164Z" fill="white" fill-opacity="0.05"/>
<path d="M129 164V163H128V164H129ZM129 165H191.429V163H129V165ZM130 200V164H128V200H130Z" fill="#5B5B5B" mask="url(#path-113-inside-43_69_10807)"/>
<mask id="path-115-inside-44_69_10807" fill="white">
<path d="M191.429 164H253.857V200H191.429V164Z"/>
</mask>
<path d="M191.429 164H253.857V200H191.429V164Z" fill="white" fill-opacity="0.05"/>
<path d="M191.429 164V163H190.429V164H191.429ZM191.429 165H253.857V163H191.429V165ZM192.429 200V164H190.429V200H192.429Z" fill="#5B5B5B" mask="url(#path-115-inside-44_69_10807)"/>
<mask id="path-117-inside-45_69_10807" fill="white">
<path d="M253.857 164H316.286V200H253.857V164Z"/>
</mask>
<path d="M253.857 164H316.286V200H253.857V164Z" fill="white" fill-opacity="0.05"/>
<path d="M253.857 164V163H252.857V164H253.857ZM253.857 165H316.286V163H253.857V165ZM254.857 200V164H252.857V200H254.857Z" fill="#5B5B5B" mask="url(#path-117-inside-45_69_10807)"/>
<mask id="path-119-inside-46_69_10807" fill="white">
<path d="M316.286 164H378.714V200H316.286V164Z"/>
</mask>
<path d="M316.286 164H378.714V200H316.286V164Z" fill="white" fill-opacity="0.05"/>
<path d="M316.286 164V163H315.286V164H316.286ZM316.286 165H378.714V163H316.286V165ZM317.286 200V164H315.286V200H317.286Z" fill="#5B5B5B" mask="url(#path-119-inside-46_69_10807)"/>
<mask id="path-121-inside-47_69_10807" fill="white">
<path d="M378.714 164H441.143V200H378.714V164Z"/>
</mask>
<path d="M378.714 164H441.143V200H378.714V164Z" fill="white" fill-opacity="0.05"/>
<path d="M378.714 164V163H377.714V164H378.714ZM378.714 165H441.143V163H378.714V165ZM379.714 200V164H377.714V200H379.714Z" fill="#5B5B5B" mask="url(#path-121-inside-47_69_10807)"/>
<mask id="path-123-inside-48_69_10807" fill="white">
<path d="M441.143 164H503.571V200H441.143V164Z"/>
</mask>
<path d="M441.143 164H503.571V200H441.143V164Z" fill="white" fill-opacity="0.05"/>
<path d="M441.143 164V163H440.143V164H441.143ZM441.143 165H503.571V163H441.143V165ZM442.143 200V164H440.143V200H442.143Z" fill="#5B5B5B" mask="url(#path-123-inside-48_69_10807)"/>
<mask id="path-125-inside-49_69_10807" fill="white">
<path d="M503.571 164H566V200H503.571V164Z"/>
</mask>
<path d="M503.571 164H566V200H503.571V164Z" fill="white" fill-opacity="0.05"/>
<path d="M503.571 164V163H502.571V164H503.571ZM503.571 165H566V163H503.571V165ZM504.571 200V164H502.571V200H504.571Z" fill="#5B5B5B" mask="url(#path-125-inside-49_69_10807)"/>
<mask id="path-127-inside-50_69_10807" fill="white">
<path d="M566 164H628.429V200H566V164Z"/>
</mask>
<path d="M566 164H628.429V200H566V164Z" fill="white" fill-opacity="0.05"/>
<path d="M566 164V163H565V164H566ZM566 165H628.429V163H566V165ZM567 200V164H565V200H567Z" fill="#5B5B5B" mask="url(#path-127-inside-50_69_10807)"/>
<mask id="path-129-inside-51_69_10807" fill="white">
<path d="M628.429 164H690.857V200H628.429V164Z"/>
</mask>
<path d="M628.429 164H690.857V200H628.429V164Z" fill="white" fill-opacity="0.05"/>
<path d="M628.429 164V163H627.429V164H628.429ZM628.429 165H690.857V163H628.429V165ZM629.429 200V164H627.429V200H629.429Z" fill="#5B5B5B" mask="url(#path-129-inside-51_69_10807)"/>
<mask id="path-131-inside-52_69_10807" fill="white">
<path d="M690.857 164H753.285V200H690.857V164Z"/>
</mask>
<path d="M690.857 164H753.285V200H690.857V164Z" fill="white" fill-opacity="0.05"/>
<path d="M690.857 164V163H689.857V164H690.857ZM690.857 165H753.285V163H690.857V165ZM691.857 200V164H689.857V200H691.857Z" fill="#5B5B5B" mask="url(#path-131-inside-52_69_10807)"/>
<mask id="path-133-inside-53_69_10807" fill="white">
<path d="M753.286 164H815.714V200H753.286V164Z"/>
</mask>
<path d="M753.286 164H815.714V200H753.286V164Z" fill="white" fill-opacity="0.05"/>
<path d="M753.286 164V163H752.286V164H753.286ZM753.286 165H815.714V163H753.286V165ZM754.286 200V164H752.286V200H754.286Z" fill="#5B5B5B" mask="url(#path-133-inside-53_69_10807)"/>
<mask id="path-135-inside-54_69_10807" fill="white">
<path d="M815.714 164H878.143V200H815.714V164Z"/>
</mask>
<path d="M815.714 164H878.143V200H815.714V164Z" fill="white" fill-opacity="0.05"/>
<path d="M815.714 164V163H814.714V164H815.714ZM815.714 165H878.143V163H815.714V165ZM816.714 200V164H814.714V200H816.714Z" fill="#5B5B5B" mask="url(#path-135-inside-54_69_10807)"/>
<mask id="path-137-inside-55_69_10807" fill="white">
<path d="M878.143 164H940.571V200H878.143V164Z"/>
</mask>
<path d="M878.143 164H940.571V200H878.143V164Z" fill="white" fill-opacity="0.05"/>
<path d="M878.143 164V163H877.143V164H878.143ZM878.143 165H940.571V163H878.143V165ZM879.143 200V164H877.143V200H879.143Z" fill="#5B5B5B" mask="url(#path-137-inside-55_69_10807)"/>
<mask id="path-139-inside-56_69_10807" fill="white">
<path d="M940.571 164H1003V200H940.571V164Z"/>
</mask>
<path d="M940.571 164H1003V200H940.571V164Z" fill="white" fill-opacity="0.05"/>
<path d="M940.571 164V163H939.571V164H940.571ZM940.571 165H1003V163H940.571V165ZM941.571 200V164H939.571V200H941.571Z" fill="#5B5B5B" mask="url(#path-139-inside-56_69_10807)"/>
</g>
<g clip-path="url(#clip5_69_10807)">
<rect width="874" height="36" transform="translate(129 200)" fill="white" fill-opacity="0.01"/>
<mask id="path-141-inside-57_69_10807" fill="white">
<path d="M129 200H191.429V236H129V200Z"/>
</mask>
<path d="M129 200H191.429V236H129V200Z" fill="white" fill-opacity="0.05"/>
<path d="M129 200V199H128V200H129ZM129 201H191.429V199H129V201ZM130 236V200H128V236H130Z" fill="#5B5B5B" mask="url(#path-141-inside-57_69_10807)"/>
<mask id="path-143-inside-58_69_10807" fill="white">
<path d="M191.429 200H253.857V236H191.429V200Z"/>
</mask>
<path d="M191.429 200H253.857V236H191.429V200Z" fill="white" fill-opacity="0.05"/>
<path d="M191.429 200V199H190.429V200H191.429ZM191.429 201H253.857V199H191.429V201ZM192.429 236V200H190.429V236H192.429Z" fill="#5B5B5B" mask="url(#path-143-inside-58_69_10807)"/>
<mask id="path-145-inside-59_69_10807" fill="white">
<path d="M253.857 200H316.286V236H253.857V200Z"/>
</mask>
<path d="M253.857 200H316.286V236H253.857V200Z" fill="white" fill-opacity="0.05"/>
<path d="M253.857 200V199H252.857V200H253.857ZM253.857 201H316.286V199H253.857V201ZM254.857 236V200H252.857V236H254.857Z" fill="#5B5B5B" mask="url(#path-145-inside-59_69_10807)"/>
<mask id="path-147-inside-60_69_10807" fill="white">
<path d="M316.286 200H378.714V236H316.286V200Z"/>
</mask>
<path d="M316.286 200H378.714V236H316.286V200Z" fill="white" fill-opacity="0.05"/>
<path d="M316.286 200V199H315.286V200H316.286ZM316.286 201H378.714V199H316.286V201ZM317.286 236V200H315.286V236H317.286Z" fill="#5B5B5B" mask="url(#path-147-inside-60_69_10807)"/>
<mask id="path-149-inside-61_69_10807" fill="white">
<path d="M378.714 200H441.143V236H378.714V200Z"/>
</mask>
<path d="M378.714 200H441.143V236H378.714V200Z" fill="white" fill-opacity="0.05"/>
<path d="M378.714 200V199H377.714V200H378.714ZM378.714 201H441.143V199H378.714V201ZM379.714 236V200H377.714V236H379.714Z" fill="#5B5B5B" mask="url(#path-149-inside-61_69_10807)"/>
<mask id="path-151-inside-62_69_10807" fill="white">
<path d="M441.143 200H503.571V236H441.143V200Z"/>
</mask>
<path d="M441.143 200H503.571V236H441.143V200Z" fill="white" fill-opacity="0.05"/>
<path d="M441.143 200V199H440.143V200H441.143ZM441.143 201H503.571V199H441.143V201ZM442.143 236V200H440.143V236H442.143Z" fill="#5B5B5B" mask="url(#path-151-inside-62_69_10807)"/>
<mask id="path-153-inside-63_69_10807" fill="white">
<path d="M503.571 200H566V236H503.571V200Z"/>
</mask>
<path d="M503.571 200H566V236H503.571V200Z" fill="white" fill-opacity="0.05"/>
<path d="M503.571 200V199H502.571V200H503.571ZM503.571 201H566V199H503.571V201ZM504.571 236V200H502.571V236H504.571Z" fill="#5B5B5B" mask="url(#path-153-inside-63_69_10807)"/>
<mask id="path-155-inside-64_69_10807" fill="white">
<path d="M566 200H628.429V236H566V200Z"/>
</mask>
<path d="M566 200H628.429V236H566V200Z" fill="white" fill-opacity="0.05"/>
<path d="M566 200V199H565V200H566ZM566 201H628.429V199H566V201ZM567 236V200H565V236H567Z" fill="#5B5B5B" mask="url(#path-155-inside-64_69_10807)"/>
<mask id="path-157-inside-65_69_10807" fill="white">
<path d="M628.429 200H690.857V236H628.429V200Z"/>
</mask>
<path d="M628.429 200H690.857V236H628.429V200Z" fill="white" fill-opacity="0.05"/>
<path d="M628.429 200V199H627.429V200H628.429ZM628.429 201H690.857V199H628.429V201ZM629.429 236V200H627.429V236H629.429Z" fill="#5B5B5B" mask="url(#path-157-inside-65_69_10807)"/>
<mask id="path-159-inside-66_69_10807" fill="white">
<path d="M690.857 200H753.285V236H690.857V200Z"/>
</mask>
<path d="M690.857 200H753.285V236H690.857V200Z" fill="white" fill-opacity="0.05"/>
<path d="M690.857 200V199H689.857V200H690.857ZM690.857 201H753.285V199H690.857V201ZM691.857 236V200H689.857V236H691.857Z" fill="#5B5B5B" mask="url(#path-159-inside-66_69_10807)"/>
<mask id="path-161-inside-67_69_10807" fill="white">
<path d="M753.286 200H815.714V236H753.286V200Z"/>
</mask>
<path d="M753.286 200H815.714V236H753.286V200Z" fill="white" fill-opacity="0.05"/>
<path d="M753.286 200V199H752.286V200H753.286ZM753.286 201H815.714V199H753.286V201ZM754.286 236V200H752.286V236H754.286Z" fill="#5B5B5B" mask="url(#path-161-inside-67_69_10807)"/>
<mask id="path-163-inside-68_69_10807" fill="white">
<path d="M815.714 200H878.143V236H815.714V200Z"/>
</mask>
<path d="M815.714 200H878.143V236H815.714V200Z" fill="white" fill-opacity="0.05"/>
<path d="M815.714 200V199H814.714V200H815.714ZM815.714 201H878.143V199H815.714V201ZM816.714 236V200H814.714V236H816.714Z" fill="#5B5B5B" mask="url(#path-163-inside-68_69_10807)"/>
<mask id="path-165-inside-69_69_10807" fill="white">
<path d="M878.143 200H940.571V236H878.143V200Z"/>
</mask>
<path d="M878.143 200H940.571V236H878.143V200Z" fill="white" fill-opacity="0.05"/>
<path d="M878.143 200V199H877.143V200H878.143ZM878.143 201H940.571V199H878.143V201ZM879.143 236V200H877.143V236H879.143Z" fill="#5B5B5B" mask="url(#path-165-inside-69_69_10807)"/>
<mask id="path-167-inside-70_69_10807" fill="white">
<path d="M940.571 200H1003V236H940.571V200Z"/>
</mask>
<path d="M940.571 200H1003V236H940.571V200Z" fill="white" fill-opacity="0.05"/>
<path d="M940.571 200V199H939.571V200H940.571ZM940.571 201H1003V199H940.571V201ZM941.571 236V200H939.571V236H941.571Z" fill="#5B5B5B" mask="url(#path-167-inside-70_69_10807)"/>
</g>
<g clip-path="url(#clip6_69_10807)">
<rect width="874" height="36" transform="translate(129 236)" fill="white" fill-opacity="0.01"/>
<mask id="path-169-inside-71_69_10807" fill="white">
<path d="M129 236H191.429V272H129V236Z"/>
</mask>
<path d="M129 236H191.429V272H129V236Z" fill="white" fill-opacity="0.05"/>
<path d="M129 236V235H128V236H129ZM129 237H191.429V235H129V237ZM130 272V236H128V272H130Z" fill="#5B5B5B" mask="url(#path-169-inside-71_69_10807)"/>
<mask id="path-171-inside-72_69_10807" fill="white">
<path d="M191.429 236H253.857V272H191.429V236Z"/>
</mask>
<path d="M191.429 236H253.857V272H191.429V236Z" fill="white" fill-opacity="0.05"/>
<path d="M191.429 236V235H190.429V236H191.429ZM191.429 237H253.857V235H191.429V237ZM192.429 272V236H190.429V272H192.429Z" fill="#5B5B5B" mask="url(#path-171-inside-72_69_10807)"/>
<mask id="path-173-inside-73_69_10807" fill="white">
<path d="M253.857 236H316.286V272H253.857V236Z"/>
</mask>
<path d="M253.857 236H316.286V272H253.857V236Z" fill="white" fill-opacity="0.05"/>
<path d="M253.857 236V235H252.857V236H253.857ZM253.857 237H316.286V235H253.857V237ZM254.857 272V236H252.857V272H254.857Z" fill="#5B5B5B" mask="url(#path-173-inside-73_69_10807)"/>
<mask id="path-175-inside-74_69_10807" fill="white">
<path d="M316.286 236H378.714V272H316.286V236Z"/>
</mask>
<path d="M316.286 236H378.714V272H316.286V236Z" fill="white" fill-opacity="0.05"/>
<path d="M316.286 236V235H315.286V236H316.286ZM316.286 237H378.714V235H316.286V237ZM317.286 272V236H315.286V272H317.286Z" fill="#5B5B5B" mask="url(#path-175-inside-74_69_10807)"/>
<mask id="path-177-inside-75_69_10807" fill="white">
<path d="M378.714 236H441.143V272H378.714V236Z"/>
</mask>
<path d="M378.714 236H441.143V272H378.714V236Z" fill="white" fill-opacity="0.05"/>
<path d="M378.714 236V235H377.714V236H378.714ZM378.714 237H441.143V235H378.714V237ZM379.714 272V236H377.714V272H379.714Z" fill="#5B5B5B" mask="url(#path-177-inside-75_69_10807)"/>
<mask id="path-179-inside-76_69_10807" fill="white">
<path d="M441.143 236H503.571V272H441.143V236Z"/>
</mask>
<path d="M441.143 236H503.571V272H441.143V236Z" fill="white" fill-opacity="0.05"/>
<path d="M441.143 236V235H440.143V236H441.143ZM441.143 237H503.571V235H441.143V237ZM442.143 272V236H440.143V272H442.143Z" fill="#5B5B5B" mask="url(#path-179-inside-76_69_10807)"/>
<mask id="path-181-inside-77_69_10807" fill="white">
<path d="M503.571 236H566V272H503.571V236Z"/>
</mask>
<path d="M503.571 236H566V272H503.571V236Z" fill="white" fill-opacity="0.05"/>
<path d="M503.571 236V235H502.571V236H503.571ZM503.571 237H566V235H503.571V237ZM504.571 272V236H502.571V272H504.571Z" fill="#5B5B5B" mask="url(#path-181-inside-77_69_10807)"/>
<mask id="path-183-inside-78_69_10807" fill="white">
<path d="M566 236H628.429V272H566V236Z"/>
</mask>
<path d="M566 236H628.429V272H566V236Z" fill="white" fill-opacity="0.05"/>
<path d="M566 236V235H565V236H566ZM566 237H628.429V235H566V237ZM567 272V236H565V272H567Z" fill="#5B5B5B" mask="url(#path-183-inside-78_69_10807)"/>
<mask id="path-185-inside-79_69_10807" fill="white">
<path d="M628.429 236H690.857V272H628.429V236Z"/>
</mask>
<path d="M628.429 236H690.857V272H628.429V236Z" fill="white" fill-opacity="0.05"/>
<path d="M628.429 236V235H627.429V236H628.429ZM628.429 237H690.857V235H628.429V237ZM629.429 272V236H627.429V272H629.429Z" fill="#5B5B5B" mask="url(#path-185-inside-79_69_10807)"/>
<mask id="path-187-inside-80_69_10807" fill="white">
<path d="M690.857 236H753.285V272H690.857V236Z"/>
</mask>
<path d="M690.857 236H753.285V272H690.857V236Z" fill="white" fill-opacity="0.05"/>
<path d="M690.857 236V235H689.857V236H690.857ZM690.857 237H753.285V235H690.857V237ZM691.857 272V236H689.857V272H691.857Z" fill="#5B5B5B" mask="url(#path-187-inside-80_69_10807)"/>
<mask id="path-189-inside-81_69_10807" fill="white">
<path d="M753.286 236H815.714V272H753.286V236Z"/>
</mask>
<path d="M753.286 236H815.714V272H753.286V236Z" fill="white" fill-opacity="0.05"/>
<path d="M753.286 236V235H752.286V236H753.286ZM753.286 237H815.714V235H753.286V237ZM754.286 272V236H752.286V272H754.286Z" fill="#5B5B5B" mask="url(#path-189-inside-81_69_10807)"/>
<mask id="path-191-inside-82_69_10807" fill="white">
<path d="M815.714 236H878.143V272H815.714V236Z"/>
</mask>
<path d="M815.714 236H878.143V272H815.714V236Z" fill="white" fill-opacity="0.05"/>
<path d="M815.714 236V235H814.714V236H815.714ZM815.714 237H878.143V235H815.714V237ZM816.714 272V236H814.714V272H816.714Z" fill="#5B5B5B" mask="url(#path-191-inside-82_69_10807)"/>
<mask id="path-193-inside-83_69_10807" fill="white">
<path d="M878.143 236H940.571V272H878.143V236Z"/>
</mask>
<path d="M878.143 236H940.571V272H878.143V236Z" fill="white" fill-opacity="0.05"/>
<path d="M878.143 236V235H877.143V236H878.143ZM878.143 237H940.571V235H878.143V237ZM879.143 272V236H877.143V272H879.143Z" fill="#5B5B5B" mask="url(#path-193-inside-83_69_10807)"/>
<mask id="path-195-inside-84_69_10807" fill="white">
<path d="M940.571 236H1003V272H940.571V236Z"/>
</mask>
<path d="M940.571 236H1003V272H940.571V236Z" fill="white" fill-opacity="0.05"/>
<path d="M940.571 236V235H939.571V236H940.571ZM940.571 237H1003V235H940.571V237ZM941.571 272V236H939.571V272H941.571Z" fill="#5B5B5B" mask="url(#path-195-inside-84_69_10807)"/>
</g>
<g clip-path="url(#clip7_69_10807)">
<rect width="874" height="36" transform="translate(129 272)" fill="white" fill-opacity="0.01"/>
<mask id="path-197-inside-85_69_10807" fill="white">
<path d="M129 272H191.429V308H129V272Z"/>
</mask>
<path d="M129 272H191.429V308H129V272Z" fill="white" fill-opacity="0.05"/>
<path d="M129 272V271H128V272H129ZM129 273H191.429V271H129V273ZM130 308V272H128V308H130Z" fill="#5B5B5B" mask="url(#path-197-inside-85_69_10807)"/>
<mask id="path-199-inside-86_69_10807" fill="white">
<path d="M191.429 272H253.857V308H191.429V272Z"/>
</mask>
<path d="M191.429 272H253.857V308H191.429V272Z" fill="white" fill-opacity="0.05"/>
<path d="M191.429 272V271H190.429V272H191.429ZM191.429 273H253.857V271H191.429V273ZM192.429 308V272H190.429V308H192.429Z" fill="#5B5B5B" mask="url(#path-199-inside-86_69_10807)"/>
<mask id="path-201-inside-87_69_10807" fill="white">
<path d="M253.857 272H316.286V308H253.857V272Z"/>
</mask>
<path d="M253.857 272H316.286V308H253.857V272Z" fill="white" fill-opacity="0.05"/>
<path d="M253.857 272V271H252.857V272H253.857ZM253.857 273H316.286V271H253.857V273ZM254.857 308V272H252.857V308H254.857Z" fill="#5B5B5B" mask="url(#path-201-inside-87_69_10807)"/>
<mask id="path-203-inside-88_69_10807" fill="white">
<path d="M316.286 272H378.714V308H316.286V272Z"/>
</mask>
<path d="M316.286 272H378.714V308H316.286V272Z" fill="white" fill-opacity="0.05"/>
<path d="M316.286 272V271H315.286V272H316.286ZM316.286 273H378.714V271H316.286V273ZM317.286 308V272H315.286V308H317.286Z" fill="#5B5B5B" mask="url(#path-203-inside-88_69_10807)"/>
<mask id="path-205-inside-89_69_10807" fill="white">
<path d="M378.714 272H441.143V308H378.714V272Z"/>
</mask>
<path d="M378.714 272H441.143V308H378.714V272Z" fill="white" fill-opacity="0.05"/>
<path d="M378.714 272V271H377.714V272H378.714ZM378.714 273H441.143V271H378.714V273ZM379.714 308V272H377.714V308H379.714Z" fill="#5B5B5B" mask="url(#path-205-inside-89_69_10807)"/>
<mask id="path-207-inside-90_69_10807" fill="white">
<path d="M441.143 272H503.571V308H441.143V272Z"/>
</mask>
<path d="M441.143 272H503.571V308H441.143V272Z" fill="white" fill-opacity="0.05"/>
<path d="M441.143 272V271H440.143V272H441.143ZM441.143 273H503.571V271H441.143V273ZM442.143 308V272H440.143V308H442.143Z" fill="#5B5B5B" mask="url(#path-207-inside-90_69_10807)"/>
<mask id="path-209-inside-91_69_10807" fill="white">
<path d="M503.571 272H566V308H503.571V272Z"/>
</mask>
<path d="M503.571 272H566V308H503.571V272Z" fill="white" fill-opacity="0.05"/>
<path d="M503.571 272V271H502.571V272H503.571ZM503.571 273H566V271H503.571V273ZM504.571 308V272H502.571V308H504.571Z" fill="#5B5B5B" mask="url(#path-209-inside-91_69_10807)"/>
<mask id="path-211-inside-92_69_10807" fill="white">
<path d="M566 272H628.429V308H566V272Z"/>
</mask>
<path d="M566 272H628.429V308H566V272Z" fill="white" fill-opacity="0.05"/>
<path d="M566 272V271H565V272H566ZM566 273H628.429V271H566V273ZM567 308V272H565V308H567Z" fill="#5B5B5B" mask="url(#path-211-inside-92_69_10807)"/>
<mask id="path-213-inside-93_69_10807" fill="white">
<path d="M628.429 272H690.857V308H628.429V272Z"/>
</mask>
<path d="M628.429 272H690.857V308H628.429V272Z" fill="white" fill-opacity="0.05"/>
<path d="M628.429 272V271H627.429V272H628.429ZM628.429 273H690.857V271H628.429V273ZM629.429 308V272H627.429V308H629.429Z" fill="#5B5B5B" mask="url(#path-213-inside-93_69_10807)"/>
<mask id="path-215-inside-94_69_10807" fill="white">
<path d="M690.857 272H753.285V308H690.857V272Z"/>
</mask>
<path d="M690.857 272H753.285V308H690.857V272Z" fill="white" fill-opacity="0.05"/>
<path d="M690.857 272V271H689.857V272H690.857ZM690.857 273H753.285V271H690.857V273ZM691.857 308V272H689.857V308H691.857Z" fill="#5B5B5B" mask="url(#path-215-inside-94_69_10807)"/>
<mask id="path-217-inside-95_69_10807" fill="white">
<path d="M753.286 272H815.714V308H753.286V272Z"/>
</mask>
<path d="M753.286 272H815.714V308H753.286V272Z" fill="white" fill-opacity="0.05"/>
<path d="M753.286 272V271H752.286V272H753.286ZM753.286 273H815.714V271H753.286V273ZM754.286 308V272H752.286V308H754.286Z" fill="#5B5B5B" mask="url(#path-217-inside-95_69_10807)"/>
<mask id="path-219-inside-96_69_10807" fill="white">
<path d="M815.714 272H878.143V308H815.714V272Z"/>
</mask>
<path d="M815.714 272H878.143V308H815.714V272Z" fill="white" fill-opacity="0.05"/>
<path d="M815.714 272V271H814.714V272H815.714ZM815.714 273H878.143V271H815.714V273ZM816.714 308V272H814.714V308H816.714Z" fill="#5B5B5B" mask="url(#path-219-inside-96_69_10807)"/>
<mask id="path-221-inside-97_69_10807" fill="white">
<path d="M878.143 272H940.571V308H878.143V272Z"/>
</mask>
<path d="M878.143 272H940.571V308H878.143V272Z" fill="white" fill-opacity="0.05"/>
<path d="M878.143 272V271H877.143V272H878.143ZM878.143 273H940.571V271H878.143V273ZM879.143 308V272H877.143V308H879.143Z" fill="#5B5B5B" mask="url(#path-221-inside-97_69_10807)"/>
<mask id="path-223-inside-98_69_10807" fill="white">
<path d="M940.571 272H1003V308H940.571V272Z"/>
</mask>
<path d="M940.571 272H1003V308H940.571V272Z" fill="white" fill-opacity="0.05"/>
<path d="M940.571 272V271H939.571V272H940.571ZM940.571 273H1003V271H940.571V273ZM941.571 308V272H939.571V308H941.571Z" fill="#5B5B5B" mask="url(#path-223-inside-98_69_10807)"/>
</g>
<g clip-path="url(#clip8_69_10807)">
<rect width="874" height="36" transform="translate(129 308)" fill="white" fill-opacity="0.01"/>
<mask id="path-225-inside-99_69_10807" fill="white">
<path d="M129 308H191.429V344H129V308Z"/>
</mask>
<path d="M129 308H191.429V344H129V308Z" fill="white" fill-opacity="0.05"/>
<path d="M129 308V307H128V308H129ZM129 309H191.429V307H129V309ZM130 344V308H128V344H130Z" fill="#5B5B5B" mask="url(#path-225-inside-99_69_10807)"/>
<mask id="path-227-inside-100_69_10807" fill="white">
<path d="M191.429 308H253.857V344H191.429V308Z"/>
</mask>
<path d="M191.429 308H253.857V344H191.429V308Z" fill="white" fill-opacity="0.05"/>
<path d="M191.429 308V307H190.429V308H191.429ZM191.429 309H253.857V307H191.429V309ZM192.429 344V308H190.429V344H192.429Z" fill="#5B5B5B" mask="url(#path-227-inside-100_69_10807)"/>
<mask id="path-229-inside-101_69_10807" fill="white">
<path d="M253.857 308H316.286V344H253.857V308Z"/>
</mask>
<path d="M253.857 308H316.286V344H253.857V308Z" fill="white" fill-opacity="0.05"/>
<path d="M253.857 308V307H252.857V308H253.857ZM253.857 309H316.286V307H253.857V309ZM254.857 344V308H252.857V344H254.857Z" fill="#5B5B5B" mask="url(#path-229-inside-101_69_10807)"/>
<mask id="path-231-inside-102_69_10807" fill="white">
<path d="M316.286 308H378.714V344H316.286V308Z"/>
</mask>
<path d="M316.286 308H378.714V344H316.286V308Z" fill="white" fill-opacity="0.05"/>
<path d="M316.286 308V307H315.286V308H316.286ZM316.286 309H378.714V307H316.286V309ZM317.286 344V308H315.286V344H317.286Z" fill="#5B5B5B" mask="url(#path-231-inside-102_69_10807)"/>
<mask id="path-233-inside-103_69_10807" fill="white">
<path d="M378.714 308H441.143V344H378.714V308Z"/>
</mask>
<path d="M378.714 308H441.143V344H378.714V308Z" fill="white" fill-opacity="0.05"/>
<path d="M378.714 308V307H377.714V308H378.714ZM378.714 309H441.143V307H378.714V309ZM379.714 344V308H377.714V344H379.714Z" fill="#5B5B5B" mask="url(#path-233-inside-103_69_10807)"/>
<mask id="path-235-inside-104_69_10807" fill="white">
<path d="M441.143 308H503.571V344H441.143V308Z"/>
</mask>
<path d="M441.143 308H503.571V344H441.143V308Z" fill="white" fill-opacity="0.05"/>
<path d="M441.143 308V307H440.143V308H441.143ZM441.143 309H503.571V307H441.143V309ZM442.143 344V308H440.143V344H442.143Z" fill="#5B5B5B" mask="url(#path-235-inside-104_69_10807)"/>
<mask id="path-237-inside-105_69_10807" fill="white">
<path d="M503.571 308H566V344H503.571V308Z"/>
</mask>
<path d="M503.571 308H566V344H503.571V308Z" fill="white" fill-opacity="0.05"/>
<path d="M503.571 308V307H502.571V308H503.571ZM503.571 309H566V307H503.571V309ZM504.571 344V308H502.571V344H504.571Z" fill="#5B5B5B" mask="url(#path-237-inside-105_69_10807)"/>
<mask id="path-239-inside-106_69_10807" fill="white">
<path d="M566 308H628.429V344H566V308Z"/>
</mask>
<path d="M566 308H628.429V344H566V308Z" fill="white" fill-opacity="0.05"/>
<path d="M566 308V307H565V308H566ZM566 309H628.429V307H566V309ZM567 344V308H565V344H567Z" fill="#5B5B5B" mask="url(#path-239-inside-106_69_10807)"/>
<mask id="path-241-inside-107_69_10807" fill="white">
<path d="M628.429 308H690.857V344H628.429V308Z"/>
</mask>
<path d="M628.429 308H690.857V344H628.429V308Z" fill="white" fill-opacity="0.05"/>
<path d="M628.429 308V307H627.429V308H628.429ZM628.429 309H690.857V307H628.429V309ZM629.429 344V308H627.429V344H629.429Z" fill="#5B5B5B" mask="url(#path-241-inside-107_69_10807)"/>
<mask id="path-243-inside-108_69_10807" fill="white">
<path d="M690.857 308H753.285V344H690.857V308Z"/>
</mask>
<path d="M690.857 308H753.285V344H690.857V308Z" fill="white" fill-opacity="0.05"/>
<path d="M690.857 308V307H689.857V308H690.857ZM690.857 309H753.285V307H690.857V309ZM691.857 344V308H689.857V344H691.857Z" fill="#5B5B5B" mask="url(#path-243-inside-108_69_10807)"/>
<mask id="path-245-inside-109_69_10807" fill="white">
<path d="M753.286 308H815.714V344H753.286V308Z"/>
</mask>
<path d="M753.286 308H815.714V344H753.286V308Z" fill="white" fill-opacity="0.05"/>
<path d="M753.286 308V307H752.286V308H753.286ZM753.286 309H815.714V307H753.286V309ZM754.286 344V308H752.286V344H754.286Z" fill="#5B5B5B" mask="url(#path-245-inside-109_69_10807)"/>
<mask id="path-247-inside-110_69_10807" fill="white">
<path d="M815.714 308H878.143V344H815.714V308Z"/>
</mask>
<path d="M815.714 308H878.143V344H815.714V308Z" fill="white" fill-opacity="0.05"/>
<path d="M815.714 308V307H814.714V308H815.714ZM815.714 309H878.143V307H815.714V309ZM816.714 344V308H814.714V344H816.714Z" fill="#5B5B5B" mask="url(#path-247-inside-110_69_10807)"/>
<mask id="path-249-inside-111_69_10807" fill="white">
<path d="M878.143 308H940.571V344H878.143V308Z"/>
</mask>
<path d="M878.143 308H940.571V344H878.143V308Z" fill="white" fill-opacity="0.05"/>
<path d="M878.143 308V307H877.143V308H878.143ZM878.143 309H940.571V307H878.143V309ZM879.143 344V308H877.143V344H879.143Z" fill="#5B5B5B" mask="url(#path-249-inside-111_69_10807)"/>
<mask id="path-251-inside-112_69_10807" fill="white">
<path d="M940.571 308H1003V344H940.571V308Z"/>
</mask>
<path d="M940.571 308H1003V344H940.571V308Z" fill="white" fill-opacity="0.05"/>
<path d="M940.571 308V307H939.571V308H940.571ZM940.571 309H1003V307H940.571V309ZM941.571 344V308H939.571V344H941.571Z" fill="#5B5B5B" mask="url(#path-251-inside-112_69_10807)"/>
</g>
<g clip-path="url(#clip9_69_10807)">
<rect width="874" height="36" transform="translate(129 344)" fill="white" fill-opacity="0.01"/>
<mask id="path-253-inside-113_69_10807" fill="white">
<path d="M129 344H191.429V380H129V344Z"/>
</mask>
<path d="M129 344H191.429V380H129V344Z" fill="white" fill-opacity="0.05"/>
<path d="M129 344V343H128V344H129ZM129 345H191.429V343H129V345ZM130 380V344H128V380H130Z" fill="#5B5B5B" mask="url(#path-253-inside-113_69_10807)"/>
<mask id="path-255-inside-114_69_10807" fill="white">
<path d="M191.429 344H253.857V380H191.429V344Z"/>
</mask>
<path d="M191.429 344H253.857V380H191.429V344Z" fill="white" fill-opacity="0.05"/>
<path d="M191.429 344V343H190.429V344H191.429ZM191.429 345H253.857V343H191.429V345ZM192.429 380V344H190.429V380H192.429Z" fill="#5B5B5B" mask="url(#path-255-inside-114_69_10807)"/>
<mask id="path-257-inside-115_69_10807" fill="white">
<path d="M253.857 344H316.286V380H253.857V344Z"/>
</mask>
<path d="M253.857 344H316.286V380H253.857V344Z" fill="white" fill-opacity="0.05"/>
<path d="M253.857 344V343H252.857V344H253.857ZM253.857 345H316.286V343H253.857V345ZM254.857 380V344H252.857V380H254.857Z" fill="#5B5B5B" mask="url(#path-257-inside-115_69_10807)"/>
<mask id="path-259-inside-116_69_10807" fill="white">
<path d="M316.286 344H378.714V380H316.286V344Z"/>
</mask>
<path d="M316.286 344H378.714V380H316.286V344Z" fill="white" fill-opacity="0.05"/>
<path d="M316.286 344V343H315.286V344H316.286ZM316.286 345H378.714V343H316.286V345ZM317.286 380V344H315.286V380H317.286Z" fill="#5B5B5B" mask="url(#path-259-inside-116_69_10807)"/>
<mask id="path-261-inside-117_69_10807" fill="white">
<path d="M378.714 344H441.143V380H378.714V344Z"/>
</mask>
<path d="M378.714 344H441.143V380H378.714V344Z" fill="white" fill-opacity="0.05"/>
<path d="M378.714 344V343H377.714V344H378.714ZM378.714 345H441.143V343H378.714V345ZM379.714 380V344H377.714V380H379.714Z" fill="#5B5B5B" mask="url(#path-261-inside-117_69_10807)"/>
<mask id="path-263-inside-118_69_10807" fill="white">
<path d="M441.143 344H503.571V380H441.143V344Z"/>
</mask>
<path d="M441.143 344H503.571V380H441.143V344Z" fill="white" fill-opacity="0.05"/>
<path d="M441.143 344V343H440.143V344H441.143ZM441.143 345H503.571V343H441.143V345ZM442.143 380V344H440.143V380H442.143Z" fill="#5B5B5B" mask="url(#path-263-inside-118_69_10807)"/>
<mask id="path-265-inside-119_69_10807" fill="white">
<path d="M503.571 344H566V380H503.571V344Z"/>
</mask>
<path d="M503.571 344H566V380H503.571V344Z" fill="white" fill-opacity="0.05"/>
<path d="M503.571 344V343H502.571V344H503.571ZM503.571 345H566V343H503.571V345ZM504.571 380V344H502.571V380H504.571Z" fill="#5B5B5B" mask="url(#path-265-inside-119_69_10807)"/>
<mask id="path-267-inside-120_69_10807" fill="white">
<path d="M566 344H628.429V380H566V344Z"/>
</mask>
<path d="M566 344H628.429V380H566V344Z" fill="white" fill-opacity="0.05"/>
<path d="M566 344V343H565V344H566ZM566 345H628.429V343H566V345ZM567 380V344H565V380H567Z" fill="#5B5B5B" mask="url(#path-267-inside-120_69_10807)"/>
<mask id="path-269-inside-121_69_10807" fill="white">
<path d="M628.429 344H690.857V380H628.429V344Z"/>
</mask>
<path d="M628.429 344H690.857V380H628.429V344Z" fill="white" fill-opacity="0.05"/>
<path d="M628.429 344V343H627.429V344H628.429ZM628.429 345H690.857V343H628.429V345ZM629.429 380V344H627.429V380H629.429Z" fill="#5B5B5B" mask="url(#path-269-inside-121_69_10807)"/>
<mask id="path-271-inside-122_69_10807" fill="white">
<path d="M690.857 344H753.285V380H690.857V344Z"/>
</mask>
<path d="M690.857 344H753.285V380H690.857V344Z" fill="white" fill-opacity="0.05"/>
<path d="M690.857 344V343H689.857V344H690.857ZM690.857 345H753.285V343H690.857V345ZM691.857 380V344H689.857V380H691.857Z" fill="#5B5B5B" mask="url(#path-271-inside-122_69_10807)"/>
<mask id="path-273-inside-123_69_10807" fill="white">
<path d="M753.286 344H815.714V380H753.286V344Z"/>
</mask>
<path d="M753.286 344H815.714V380H753.286V344Z" fill="white" fill-opacity="0.05"/>
<path d="M753.286 344V343H752.286V344H753.286ZM753.286 345H815.714V343H753.286V345ZM754.286 380V344H752.286V380H754.286Z" fill="#5B5B5B" mask="url(#path-273-inside-123_69_10807)"/>
<mask id="path-275-inside-124_69_10807" fill="white">
<path d="M815.714 344H878.143V380H815.714V344Z"/>
</mask>
<path d="M815.714 344H878.143V380H815.714V344Z" fill="white" fill-opacity="0.05"/>
<path d="M815.714 344V343H814.714V344H815.714ZM815.714 345H878.143V343H815.714V345ZM816.714 380V344H814.714V380H816.714Z" fill="#5B5B5B" mask="url(#path-275-inside-124_69_10807)"/>
<mask id="path-277-inside-125_69_10807" fill="white">
<path d="M878.143 344H940.571V380H878.143V344Z"/>
</mask>
<path d="M878.143 344H940.571V380H878.143V344Z" fill="white" fill-opacity="0.05"/>
<path d="M878.143 344V343H877.143V344H878.143ZM878.143 345H940.571V343H878.143V345ZM879.143 380V344H877.143V380H879.143Z" fill="#5B5B5B" mask="url(#path-277-inside-125_69_10807)"/>
<mask id="path-279-inside-126_69_10807" fill="white">
<path d="M940.571 344H1003V380H940.571V344Z"/>
</mask>
<path d="M940.571 344H1003V380H940.571V344Z" fill="white" fill-opacity="0.05"/>
<path d="M940.571 344V343H939.571V344H940.571ZM940.571 345H1003V343H940.571V345ZM941.571 380V344H939.571V380H941.571Z" fill="#5B5B5B" mask="url(#path-279-inside-126_69_10807)"/>
</g>
<g clip-path="url(#clip10_69_10807)">
<rect width="874" height="36" transform="translate(129 380)" fill="white" fill-opacity="0.01"/>
<mask id="path-281-inside-127_69_10807" fill="white">
<path d="M129 380H191.429V416H129V380Z"/>
</mask>
<path d="M129 380H191.429V416H129V380Z" fill="white" fill-opacity="0.05"/>
<path d="M129 380V379H128V380H129ZM129 381H191.429V379H129V381ZM130 416V380H128V416H130Z" fill="#5B5B5B" mask="url(#path-281-inside-127_69_10807)"/>
<mask id="path-283-inside-128_69_10807" fill="white">
<path d="M191.429 380H253.857V416H191.429V380Z"/>
</mask>
<path d="M191.429 380H253.857V416H191.429V380Z" fill="white" fill-opacity="0.05"/>
<path d="M191.429 380V379H190.429V380H191.429ZM191.429 381H253.857V379H191.429V381ZM192.429 416V380H190.429V416H192.429Z" fill="#5B5B5B" mask="url(#path-283-inside-128_69_10807)"/>
<mask id="path-285-inside-129_69_10807" fill="white">
<path d="M253.857 380H316.286V416H253.857V380Z"/>
</mask>
<path d="M253.857 380H316.286V416H253.857V380Z" fill="white" fill-opacity="0.05"/>
<path d="M253.857 380V379H252.857V380H253.857ZM253.857 381H316.286V379H253.857V381ZM254.857 416V380H252.857V416H254.857Z" fill="#5B5B5B" mask="url(#path-285-inside-129_69_10807)"/>
<mask id="path-287-inside-130_69_10807" fill="white">
<path d="M316.286 380H378.714V416H316.286V380Z"/>
</mask>
<path d="M316.286 380H378.714V416H316.286V380Z" fill="white" fill-opacity="0.05"/>
<path d="M316.286 380V379H315.286V380H316.286ZM316.286 381H378.714V379H316.286V381ZM317.286 416V380H315.286V416H317.286Z" fill="#5B5B5B" mask="url(#path-287-inside-130_69_10807)"/>
<mask id="path-289-inside-131_69_10807" fill="white">
<path d="M378.714 380H441.143V416H378.714V380Z"/>
</mask>
<path d="M378.714 380H441.143V416H378.714V380Z" fill="white" fill-opacity="0.05"/>
<path d="M378.714 380V379H377.714V380H378.714ZM378.714 381H441.143V379H378.714V381ZM379.714 416V380H377.714V416H379.714Z" fill="#5B5B5B" mask="url(#path-289-inside-131_69_10807)"/>
<mask id="path-291-inside-132_69_10807" fill="white">
<path d="M441.143 380H503.571V416H441.143V380Z"/>
</mask>
<path d="M441.143 380H503.571V416H441.143V380Z" fill="white" fill-opacity="0.05"/>
<path d="M441.143 380V379H440.143V380H441.143ZM441.143 381H503.571V379H441.143V381ZM442.143 416V380H440.143V416H442.143Z" fill="#5B5B5B" mask="url(#path-291-inside-132_69_10807)"/>
<mask id="path-293-inside-133_69_10807" fill="white">
<path d="M503.571 380H566V416H503.571V380Z"/>
</mask>
<path d="M503.571 380H566V416H503.571V380Z" fill="white" fill-opacity="0.05"/>
<path d="M503.571 380V379H502.571V380H503.571ZM503.571 381H566V379H503.571V381ZM504.571 416V380H502.571V416H504.571Z" fill="#5B5B5B" mask="url(#path-293-inside-133_69_10807)"/>
<mask id="path-295-inside-134_69_10807" fill="white">
<path d="M566 380H628.429V416H566V380Z"/>
</mask>
<path d="M566 380H628.429V416H566V380Z" fill="white" fill-opacity="0.05"/>
<path d="M566 380V379H565V380H566ZM566 381H628.429V379H566V381ZM567 416V380H565V416H567Z" fill="#5B5B5B" mask="url(#path-295-inside-134_69_10807)"/>
<mask id="path-297-inside-135_69_10807" fill="white">
<path d="M628.429 380H690.857V416H628.429V380Z"/>
</mask>
<path d="M628.429 380H690.857V416H628.429V380Z" fill="white" fill-opacity="0.05"/>
<path d="M628.429 380V379H627.429V380H628.429ZM628.429 381H690.857V379H628.429V381ZM629.429 416V380H627.429V416H629.429Z" fill="#5B5B5B" mask="url(#path-297-inside-135_69_10807)"/>
<mask id="path-299-inside-136_69_10807" fill="white">
<path d="M690.857 380H753.285V416H690.857V380Z"/>
</mask>
<path d="M690.857 380H753.285V416H690.857V380Z" fill="white" fill-opacity="0.05"/>
<path d="M690.857 380V379H689.857V380H690.857ZM690.857 381H753.285V379H690.857V381ZM691.857 416V380H689.857V416H691.857Z" fill="#5B5B5B" mask="url(#path-299-inside-136_69_10807)"/>
<mask id="path-301-inside-137_69_10807" fill="white">
<path d="M753.286 380H815.714V416H753.286V380Z"/>
</mask>
<path d="M753.286 380H815.714V416H753.286V380Z" fill="white" fill-opacity="0.05"/>
<path d="M753.286 380V379H752.286V380H753.286ZM753.286 381H815.714V379H753.286V381ZM754.286 416V380H752.286V416H754.286Z" fill="#5B5B5B" mask="url(#path-301-inside-137_69_10807)"/>
<mask id="path-303-inside-138_69_10807" fill="white">
<path d="M815.714 380H878.143V416H815.714V380Z"/>
</mask>
<path d="M815.714 380H878.143V416H815.714V380Z" fill="white" fill-opacity="0.05"/>
<path d="M815.714 380V379H814.714V380H815.714ZM815.714 381H878.143V379H815.714V381ZM816.714 416V380H814.714V416H816.714Z" fill="#5B5B5B" mask="url(#path-303-inside-138_69_10807)"/>
<mask id="path-305-inside-139_69_10807" fill="white">
<path d="M878.143 380H940.571V416H878.143V380Z"/>
</mask>
<path d="M878.143 380H940.571V416H878.143V380Z" fill="white" fill-opacity="0.05"/>
<path d="M878.143 380V379H877.143V380H878.143ZM878.143 381H940.571V379H878.143V381ZM879.143 416V380H877.143V416H879.143Z" fill="#5B5B5B" mask="url(#path-305-inside-139_69_10807)"/>
<mask id="path-307-inside-140_69_10807" fill="white">
<path d="M940.571 380H1003V416H940.571V380Z"/>
</mask>
<path d="M940.571 380H1003V416H940.571V380Z" fill="white" fill-opacity="0.05"/>
<path d="M940.571 380V379H939.571V380H940.571ZM940.571 381H1003V379H940.571V381ZM941.571 416V380H939.571V416H941.571Z" fill="#5B5B5B" mask="url(#path-307-inside-140_69_10807)"/>
</g>
<g clip-path="url(#clip11_69_10807)">
<rect width="874" height="36" transform="translate(129 416)" fill="white" fill-opacity="0.01"/>
<mask id="path-309-inside-141_69_10807" fill="white">
<path d="M129 416H191.429V452H129V416Z"/>
</mask>
<path d="M129 416H191.429V452H129V416Z" fill="white" fill-opacity="0.05"/>
<path d="M129 416V415H128V416H129ZM129 417H191.429V415H129V417ZM130 452V416H128V452H130Z" fill="#5B5B5B" mask="url(#path-309-inside-141_69_10807)"/>
<mask id="path-311-inside-142_69_10807" fill="white">
<path d="M191.429 416H253.857V452H191.429V416Z"/>
</mask>
<path d="M191.429 416H253.857V452H191.429V416Z" fill="white" fill-opacity="0.05"/>
<path d="M191.429 416V415H190.429V416H191.429ZM191.429 417H253.857V415H191.429V417ZM192.429 452V416H190.429V452H192.429Z" fill="#5B5B5B" mask="url(#path-311-inside-142_69_10807)"/>
<mask id="path-313-inside-143_69_10807" fill="white">
<path d="M253.857 416H316.286V452H253.857V416Z"/>
</mask>
<path d="M253.857 416H316.286V452H253.857V416Z" fill="white" fill-opacity="0.05"/>
<path d="M253.857 416V415H252.857V416H253.857ZM253.857 417H316.286V415H253.857V417ZM254.857 452V416H252.857V452H254.857Z" fill="#5B5B5B" mask="url(#path-313-inside-143_69_10807)"/>
<mask id="path-315-inside-144_69_10807" fill="white">
<path d="M316.286 416H378.714V452H316.286V416Z"/>
</mask>
<path d="M316.286 416H378.714V452H316.286V416Z" fill="white" fill-opacity="0.05"/>
<path d="M316.286 416V415H315.286V416H316.286ZM316.286 417H378.714V415H316.286V417ZM317.286 452V416H315.286V452H317.286Z" fill="#5B5B5B" mask="url(#path-315-inside-144_69_10807)"/>
<mask id="path-317-inside-145_69_10807" fill="white">
<path d="M378.714 416H441.143V452H378.714V416Z"/>
</mask>
<path d="M378.714 416H441.143V452H378.714V416Z" fill="white" fill-opacity="0.05"/>
<path d="M378.714 416V415H377.714V416H378.714ZM378.714 417H441.143V415H378.714V417ZM379.714 452V416H377.714V452H379.714Z" fill="#5B5B5B" mask="url(#path-317-inside-145_69_10807)"/>
<mask id="path-319-inside-146_69_10807" fill="white">
<path d="M441.143 416H503.571V452H441.143V416Z"/>
</mask>
<path d="M441.143 416H503.571V452H441.143V416Z" fill="white" fill-opacity="0.05"/>
<path d="M441.143 416V415H440.143V416H441.143ZM441.143 417H503.571V415H441.143V417ZM442.143 452V416H440.143V452H442.143Z" fill="#5B5B5B" mask="url(#path-319-inside-146_69_10807)"/>
<mask id="path-321-inside-147_69_10807" fill="white">
<path d="M503.571 416H566V452H503.571V416Z"/>
</mask>
<path d="M503.571 416H566V452H503.571V416Z" fill="white" fill-opacity="0.05"/>
<path d="M503.571 416V415H502.571V416H503.571ZM503.571 417H566V415H503.571V417ZM504.571 452V416H502.571V452H504.571Z" fill="#5B5B5B" mask="url(#path-321-inside-147_69_10807)"/>
<mask id="path-323-inside-148_69_10807" fill="white">
<path d="M566 416H628.429V452H566V416Z"/>
</mask>
<path d="M566 416H628.429V452H566V416Z" fill="white" fill-opacity="0.05"/>
<path d="M566 416V415H565V416H566ZM566 417H628.429V415H566V417ZM567 452V416H565V452H567Z" fill="#5B5B5B" mask="url(#path-323-inside-148_69_10807)"/>
<mask id="path-325-inside-149_69_10807" fill="white">
<path d="M628.429 416H690.857V452H628.429V416Z"/>
</mask>
<path d="M628.429 416H690.857V452H628.429V416Z" fill="white" fill-opacity="0.05"/>
<path d="M628.429 416V415H627.429V416H628.429ZM628.429 417H690.857V415H628.429V417ZM629.429 452V416H627.429V452H629.429Z" fill="#5B5B5B" mask="url(#path-325-inside-149_69_10807)"/>
<mask id="path-327-inside-150_69_10807" fill="white">
<path d="M690.857 416H753.285V452H690.857V416Z"/>
</mask>
<path d="M690.857 416H753.285V452H690.857V416Z" fill="white" fill-opacity="0.05"/>
<path d="M690.857 416V415H689.857V416H690.857ZM690.857 417H753.285V415H690.857V417ZM691.857 452V416H689.857V452H691.857Z" fill="#5B5B5B" mask="url(#path-327-inside-150_69_10807)"/>
<mask id="path-329-inside-151_69_10807" fill="white">
<path d="M753.286 416H815.714V452H753.286V416Z"/>
</mask>
<path d="M753.286 416H815.714V452H753.286V416Z" fill="white" fill-opacity="0.05"/>
<path d="M753.286 416V415H752.286V416H753.286ZM753.286 417H815.714V415H753.286V417ZM754.286 452V416H752.286V452H754.286Z" fill="#5B5B5B" mask="url(#path-329-inside-151_69_10807)"/>
<mask id="path-331-inside-152_69_10807" fill="white">
<path d="M815.714 416H878.143V452H815.714V416Z"/>
</mask>
<path d="M815.714 416H878.143V452H815.714V416Z" fill="white" fill-opacity="0.05"/>
<path d="M815.714 416V415H814.714V416H815.714ZM815.714 417H878.143V415H815.714V417ZM816.714 452V416H814.714V452H816.714Z" fill="#5B5B5B" mask="url(#path-331-inside-152_69_10807)"/>
<mask id="path-333-inside-153_69_10807" fill="white">
<path d="M878.143 416H940.571V452H878.143V416Z"/>
</mask>
<path d="M878.143 416H940.571V452H878.143V416Z" fill="white" fill-opacity="0.05"/>
<path d="M878.143 416V415H877.143V416H878.143ZM878.143 417H940.571V415H878.143V417ZM879.143 452V416H877.143V452H879.143Z" fill="#5B5B5B" mask="url(#path-333-inside-153_69_10807)"/>
<mask id="path-335-inside-154_69_10807" fill="white">
<path d="M940.571 416H1003V452H940.571V416Z"/>
</mask>
<path d="M940.571 416H1003V452H940.571V416Z" fill="white" fill-opacity="0.05"/>
<path d="M940.571 416V415H939.571V416H940.571ZM940.571 417H1003V415H940.571V417ZM941.571 452V416H939.571V452H941.571Z" fill="#5B5B5B" mask="url(#path-335-inside-154_69_10807)"/>
</g>
<g clip-path="url(#clip12_69_10807)">
<rect width="874" height="36" transform="translate(129 452)" fill="white" fill-opacity="0.01"/>
<mask id="path-337-inside-155_69_10807" fill="white">
<path d="M129 452H191.429V488H129V452Z"/>
</mask>
<path d="M129 452H191.429V488H129V452Z" fill="white" fill-opacity="0.05"/>
<path d="M129 452V451H128V452H129ZM129 453H191.429V451H129V453ZM130 488V452H128V488H130Z" fill="#5B5B5B" mask="url(#path-337-inside-155_69_10807)"/>
<mask id="path-339-inside-156_69_10807" fill="white">
<path d="M191.429 452H253.857V488H191.429V452Z"/>
</mask>
<path d="M191.429 452H253.857V488H191.429V452Z" fill="white" fill-opacity="0.05"/>
<path d="M191.429 452V451H190.429V452H191.429ZM191.429 453H253.857V451H191.429V453ZM192.429 488V452H190.429V488H192.429Z" fill="#5B5B5B" mask="url(#path-339-inside-156_69_10807)"/>
<mask id="path-341-inside-157_69_10807" fill="white">
<path d="M253.857 452H316.286V488H253.857V452Z"/>
</mask>
<path d="M253.857 452H316.286V488H253.857V452Z" fill="white" fill-opacity="0.05"/>
<path d="M253.857 452V451H252.857V452H253.857ZM253.857 453H316.286V451H253.857V453ZM254.857 488V452H252.857V488H254.857Z" fill="#5B5B5B" mask="url(#path-341-inside-157_69_10807)"/>
<mask id="path-343-inside-158_69_10807" fill="white">
<path d="M316.286 452H378.714V488H316.286V452Z"/>
</mask>
<path d="M316.286 452H378.714V488H316.286V452Z" fill="white" fill-opacity="0.05"/>
<path d="M316.286 452V451H315.286V452H316.286ZM316.286 453H378.714V451H316.286V453ZM317.286 488V452H315.286V488H317.286Z" fill="#5B5B5B" mask="url(#path-343-inside-158_69_10807)"/>
<mask id="path-345-inside-159_69_10807" fill="white">
<path d="M378.714 452H441.143V488H378.714V452Z"/>
</mask>
<path d="M378.714 452H441.143V488H378.714V452Z" fill="white" fill-opacity="0.05"/>
<path d="M378.714 452V451H377.714V452H378.714ZM378.714 453H441.143V451H378.714V453ZM379.714 488V452H377.714V488H379.714Z" fill="#5B5B5B" mask="url(#path-345-inside-159_69_10807)"/>
<mask id="path-347-inside-160_69_10807" fill="white">
<path d="M441.143 452H503.571V488H441.143V452Z"/>
</mask>
<path d="M441.143 452H503.571V488H441.143V452Z" fill="white" fill-opacity="0.05"/>
<path d="M441.143 452V451H440.143V452H441.143ZM441.143 453H503.571V451H441.143V453ZM442.143 488V452H440.143V488H442.143Z" fill="#5B5B5B" mask="url(#path-347-inside-160_69_10807)"/>
<mask id="path-349-inside-161_69_10807" fill="white">
<path d="M503.571 452H566V488H503.571V452Z"/>
</mask>
<path d="M503.571 452H566V488H503.571V452Z" fill="white" fill-opacity="0.05"/>
<path d="M503.571 452V451H502.571V452H503.571ZM503.571 453H566V451H503.571V453ZM504.571 488V452H502.571V488H504.571Z" fill="#5B5B5B" mask="url(#path-349-inside-161_69_10807)"/>
<mask id="path-351-inside-162_69_10807" fill="white">
<path d="M566 452H628.429V488H566V452Z"/>
</mask>
<path d="M566 452H628.429V488H566V452Z" fill="white" fill-opacity="0.05"/>
<path d="M566 452V451H565V452H566ZM566 453H628.429V451H566V453ZM567 488V452H565V488H567Z" fill="#5B5B5B" mask="url(#path-351-inside-162_69_10807)"/>
<mask id="path-353-inside-163_69_10807" fill="white">
<path d="M628.429 452H690.857V488H628.429V452Z"/>
</mask>
<path d="M628.429 452H690.857V488H628.429V452Z" fill="white" fill-opacity="0.05"/>
<path d="M628.429 452V451H627.429V452H628.429ZM628.429 453H690.857V451H628.429V453ZM629.429 488V452H627.429V488H629.429Z" fill="#5B5B5B" mask="url(#path-353-inside-163_69_10807)"/>
<mask id="path-355-inside-164_69_10807" fill="white">
<path d="M690.857 452H753.285V488H690.857V452Z"/>
</mask>
<path d="M690.857 452H753.285V488H690.857V452Z" fill="white" fill-opacity="0.05"/>
<path d="M690.857 452V451H689.857V452H690.857ZM690.857 453H753.285V451H690.857V453ZM691.857 488V452H689.857V488H691.857Z" fill="#5B5B5B" mask="url(#path-355-inside-164_69_10807)"/>
<mask id="path-357-inside-165_69_10807" fill="white">
<path d="M753.286 452H815.714V488H753.286V452Z"/>
</mask>
<path d="M753.286 452H815.714V488H753.286V452Z" fill="white" fill-opacity="0.05"/>
<path d="M753.286 452V451H752.286V452H753.286ZM753.286 453H815.714V451H753.286V453ZM754.286 488V452H752.286V488H754.286Z" fill="#5B5B5B" mask="url(#path-357-inside-165_69_10807)"/>
<mask id="path-359-inside-166_69_10807" fill="white">
<path d="M815.714 452H878.143V488H815.714V452Z"/>
</mask>
<path d="M815.714 452H878.143V488H815.714V452Z" fill="white" fill-opacity="0.05"/>
<path d="M815.714 452V451H814.714V452H815.714ZM815.714 453H878.143V451H815.714V453ZM816.714 488V452H814.714V488H816.714Z" fill="#5B5B5B" mask="url(#path-359-inside-166_69_10807)"/>
<mask id="path-361-inside-167_69_10807" fill="white">
<path d="M878.143 452H940.571V488H878.143V452Z"/>
</mask>
<path d="M878.143 452H940.571V488H878.143V452Z" fill="white" fill-opacity="0.05"/>
<path d="M878.143 452V451H877.143V452H878.143ZM878.143 453H940.571V451H878.143V453ZM879.143 488V452H877.143V488H879.143Z" fill="#5B5B5B" mask="url(#path-361-inside-167_69_10807)"/>
<mask id="path-363-inside-168_69_10807" fill="white">
<path d="M940.571 452H1003V488H940.571V452Z"/>
</mask>
<path d="M940.571 452H1003V488H940.571V452Z" fill="white" fill-opacity="0.05"/>
<path d="M940.571 452V451H939.571V452H940.571ZM940.571 453H1003V451H940.571V453ZM941.571 488V452H939.571V488H941.571Z" fill="#5B5B5B" mask="url(#path-363-inside-168_69_10807)"/>
</g>
<g clip-path="url(#clip13_69_10807)">
<rect width="874" height="36" transform="translate(129 488)" fill="white" fill-opacity="0.01"/>
<mask id="path-365-inside-169_69_10807" fill="white">
<path d="M129 488H191.429V524H129V488Z"/>
</mask>
<path d="M129 488H191.429V524H129V488Z" fill="white" fill-opacity="0.05"/>
<path d="M129 488V487H128V488H129ZM129 489H191.429V487H129V489ZM130 524V488H128V524H130Z" fill="#5B5B5B" mask="url(#path-365-inside-169_69_10807)"/>
<mask id="path-367-inside-170_69_10807" fill="white">
<path d="M191.429 488H253.857V524H191.429V488Z"/>
</mask>
<path d="M191.429 488H253.857V524H191.429V488Z" fill="white" fill-opacity="0.05"/>
<path d="M191.429 488V487H190.429V488H191.429ZM191.429 489H253.857V487H191.429V489ZM192.429 524V488H190.429V524H192.429Z" fill="#5B5B5B" mask="url(#path-367-inside-170_69_10807)"/>
<mask id="path-369-inside-171_69_10807" fill="white">
<path d="M253.857 488H316.286V524H253.857V488Z"/>
</mask>
<path d="M253.857 488H316.286V524H253.857V488Z" fill="white" fill-opacity="0.05"/>
<path d="M253.857 488V487H252.857V488H253.857ZM253.857 489H316.286V487H253.857V489ZM254.857 524V488H252.857V524H254.857Z" fill="#5B5B5B" mask="url(#path-369-inside-171_69_10807)"/>
<mask id="path-371-inside-172_69_10807" fill="white">
<path d="M316.286 488H378.714V524H316.286V488Z"/>
</mask>
<path d="M316.286 488H378.714V524H316.286V488Z" fill="white" fill-opacity="0.05"/>
<path d="M316.286 488V487H315.286V488H316.286ZM316.286 489H378.714V487H316.286V489ZM317.286 524V488H315.286V524H317.286Z" fill="#5B5B5B" mask="url(#path-371-inside-172_69_10807)"/>
<mask id="path-373-inside-173_69_10807" fill="white">
<path d="M378.714 488H441.143V524H378.714V488Z"/>
</mask>
<path d="M378.714 488H441.143V524H378.714V488Z" fill="white" fill-opacity="0.05"/>
<path d="M378.714 488V487H377.714V488H378.714ZM378.714 489H441.143V487H378.714V489ZM379.714 524V488H377.714V524H379.714Z" fill="#5B5B5B" mask="url(#path-373-inside-173_69_10807)"/>
<mask id="path-375-inside-174_69_10807" fill="white">
<path d="M441.143 488H503.571V524H441.143V488Z"/>
</mask>
<path d="M441.143 488H503.571V524H441.143V488Z" fill="white" fill-opacity="0.05"/>
<path d="M441.143 488V487H440.143V488H441.143ZM441.143 489H503.571V487H441.143V489ZM442.143 524V488H440.143V524H442.143Z" fill="#5B5B5B" mask="url(#path-375-inside-174_69_10807)"/>
<mask id="path-377-inside-175_69_10807" fill="white">
<path d="M503.571 488H566V524H503.571V488Z"/>
</mask>
<path d="M503.571 488H566V524H503.571V488Z" fill="white" fill-opacity="0.05"/>
<path d="M503.571 488V487H502.571V488H503.571ZM503.571 489H566V487H503.571V489ZM504.571 524V488H502.571V524H504.571Z" fill="#5B5B5B" mask="url(#path-377-inside-175_69_10807)"/>
<mask id="path-379-inside-176_69_10807" fill="white">
<path d="M566 488H628.429V524H566V488Z"/>
</mask>
<path d="M566 488H628.429V524H566V488Z" fill="white" fill-opacity="0.05"/>
<path d="M566 488V487H565V488H566ZM566 489H628.429V487H566V489ZM567 524V488H565V524H567Z" fill="#5B5B5B" mask="url(#path-379-inside-176_69_10807)"/>
<mask id="path-381-inside-177_69_10807" fill="white">
<path d="M628.429 488H690.857V524H628.429V488Z"/>
</mask>
<path d="M628.429 488H690.857V524H628.429V488Z" fill="white" fill-opacity="0.05"/>
<path d="M628.429 488V487H627.429V488H628.429ZM628.429 489H690.857V487H628.429V489ZM629.429 524V488H627.429V524H629.429Z" fill="#5B5B5B" mask="url(#path-381-inside-177_69_10807)"/>
<mask id="path-383-inside-178_69_10807" fill="white">
<path d="M690.857 488H753.285V524H690.857V488Z"/>
</mask>
<path d="M690.857 488H753.285V524H690.857V488Z" fill="white" fill-opacity="0.05"/>
<path d="M690.857 488V487H689.857V488H690.857ZM690.857 489H753.285V487H690.857V489ZM691.857 524V488H689.857V524H691.857Z" fill="#5B5B5B" mask="url(#path-383-inside-178_69_10807)"/>
<mask id="path-385-inside-179_69_10807" fill="white">
<path d="M753.286 488H815.714V524H753.286V488Z"/>
</mask>
<path d="M753.286 488H815.714V524H753.286V488Z" fill="white" fill-opacity="0.05"/>
<path d="M753.286 488V487H752.286V488H753.286ZM753.286 489H815.714V487H753.286V489ZM754.286 524V488H752.286V524H754.286Z" fill="#5B5B5B" mask="url(#path-385-inside-179_69_10807)"/>
<mask id="path-387-inside-180_69_10807" fill="white">
<path d="M815.714 488H878.143V524H815.714V488Z"/>
</mask>
<path d="M815.714 488H878.143V524H815.714V488Z" fill="white" fill-opacity="0.05"/>
<path d="M815.714 488V487H814.714V488H815.714ZM815.714 489H878.143V487H815.714V489ZM816.714 524V488H814.714V524H816.714Z" fill="#5B5B5B" mask="url(#path-387-inside-180_69_10807)"/>
<mask id="path-389-inside-181_69_10807" fill="white">
<path d="M878.143 488H940.571V524H878.143V488Z"/>
</mask>
<path d="M878.143 488H940.571V524H878.143V488Z" fill="white" fill-opacity="0.05"/>
<path d="M878.143 488V487H877.143V488H878.143ZM878.143 489H940.571V487H878.143V489ZM879.143 524V488H877.143V524H879.143Z" fill="#5B5B5B" mask="url(#path-389-inside-181_69_10807)"/>
<mask id="path-391-inside-182_69_10807" fill="white">
<path d="M940.571 488H1003V524H940.571V488Z"/>
</mask>
<path d="M940.571 488H1003V524H940.571V488Z" fill="white" fill-opacity="0.05"/>
<path d="M940.571 488V487H939.571V488H940.571ZM940.571 489H1003V487H940.571V489ZM941.571 524V488H939.571V524H941.571Z" fill="#5B5B5B" mask="url(#path-391-inside-182_69_10807)"/>
</g>
<g clip-path="url(#clip14_69_10807)">
<rect width="874" height="36" transform="translate(129 524)" fill="white" fill-opacity="0.01"/>
<mask id="path-393-inside-183_69_10807" fill="white">
<path d="M129 524H191.429V560H129V524Z"/>
</mask>
<path d="M129 524H191.429V560H129V524Z" fill="white" fill-opacity="0.05"/>
<path d="M129 524V523H128V524H129ZM129 525H191.429V523H129V525ZM130 560V524H128V560H130Z" fill="#5B5B5B" mask="url(#path-393-inside-183_69_10807)"/>
<mask id="path-395-inside-184_69_10807" fill="white">
<path d="M191.429 524H253.857V560H191.429V524Z"/>
</mask>
<path d="M191.429 524H253.857V560H191.429V524Z" fill="white" fill-opacity="0.05"/>
<path d="M191.429 524V523H190.429V524H191.429ZM191.429 525H253.857V523H191.429V525ZM192.429 560V524H190.429V560H192.429Z" fill="#5B5B5B" mask="url(#path-395-inside-184_69_10807)"/>
<mask id="path-397-inside-185_69_10807" fill="white">
<path d="M253.857 524H316.286V560H253.857V524Z"/>
</mask>
<path d="M253.857 524H316.286V560H253.857V524Z" fill="white" fill-opacity="0.05"/>
<path d="M253.857 524V523H252.857V524H253.857ZM253.857 525H316.286V523H253.857V525ZM254.857 560V524H252.857V560H254.857Z" fill="#5B5B5B" mask="url(#path-397-inside-185_69_10807)"/>
<mask id="path-399-inside-186_69_10807" fill="white">
<path d="M316.286 524H378.714V560H316.286V524Z"/>
</mask>
<path d="M316.286 524H378.714V560H316.286V524Z" fill="white" fill-opacity="0.05"/>
<path d="M316.286 524V523H315.286V524H316.286ZM316.286 525H378.714V523H316.286V525ZM317.286 560V524H315.286V560H317.286Z" fill="#5B5B5B" mask="url(#path-399-inside-186_69_10807)"/>
<mask id="path-401-inside-187_69_10807" fill="white">
<path d="M378.714 524H441.143V560H378.714V524Z"/>
</mask>
<path d="M378.714 524H441.143V560H378.714V524Z" fill="white" fill-opacity="0.05"/>
<path d="M378.714 524V523H377.714V524H378.714ZM378.714 525H441.143V523H378.714V525ZM379.714 560V524H377.714V560H379.714Z" fill="#5B5B5B" mask="url(#path-401-inside-187_69_10807)"/>
<mask id="path-403-inside-188_69_10807" fill="white">
<path d="M441.143 524H503.571V560H441.143V524Z"/>
</mask>
<path d="M441.143 524H503.571V560H441.143V524Z" fill="white" fill-opacity="0.05"/>
<path d="M441.143 524V523H440.143V524H441.143ZM441.143 525H503.571V523H441.143V525ZM442.143 560V524H440.143V560H442.143Z" fill="#5B5B5B" mask="url(#path-403-inside-188_69_10807)"/>
<mask id="path-405-inside-189_69_10807" fill="white">
<path d="M503.571 524H566V560H503.571V524Z"/>
</mask>
<path d="M503.571 524H566V560H503.571V524Z" fill="white" fill-opacity="0.05"/>
<path d="M503.571 524V523H502.571V524H503.571ZM503.571 525H566V523H503.571V525ZM504.571 560V524H502.571V560H504.571Z" fill="#5B5B5B" mask="url(#path-405-inside-189_69_10807)"/>
<mask id="path-407-inside-190_69_10807" fill="white">
<path d="M566 524H628.429V560H566V524Z"/>
</mask>
<path d="M566 524H628.429V560H566V524Z" fill="white" fill-opacity="0.05"/>
<path d="M566 524V523H565V524H566ZM566 525H628.429V523H566V525ZM567 560V524H565V560H567Z" fill="#5B5B5B" mask="url(#path-407-inside-190_69_10807)"/>
<mask id="path-409-inside-191_69_10807" fill="white">
<path d="M628.429 524H690.857V560H628.429V524Z"/>
</mask>
<path d="M628.429 524H690.857V560H628.429V524Z" fill="white" fill-opacity="0.05"/>
<path d="M628.429 524V523H627.429V524H628.429ZM628.429 525H690.857V523H628.429V525ZM629.429 560V524H627.429V560H629.429Z" fill="#5B5B5B" mask="url(#path-409-inside-191_69_10807)"/>
<mask id="path-411-inside-192_69_10807" fill="white">
<path d="M690.857 524H753.285V560H690.857V524Z"/>
</mask>
<path d="M690.857 524H753.285V560H690.857V524Z" fill="white" fill-opacity="0.05"/>
<path d="M690.857 524V523H689.857V524H690.857ZM690.857 525H753.285V523H690.857V525ZM691.857 560V524H689.857V560H691.857Z" fill="#5B5B5B" mask="url(#path-411-inside-192_69_10807)"/>
<mask id="path-413-inside-193_69_10807" fill="white">
<path d="M753.286 524H815.714V560H753.286V524Z"/>
</mask>
<path d="M753.286 524H815.714V560H753.286V524Z" fill="white" fill-opacity="0.05"/>
<path d="M753.286 524V523H752.286V524H753.286ZM753.286 525H815.714V523H753.286V525ZM754.286 560V524H752.286V560H754.286Z" fill="#5B5B5B" mask="url(#path-413-inside-193_69_10807)"/>
<mask id="path-415-inside-194_69_10807" fill="white">
<path d="M815.714 524H878.143V560H815.714V524Z"/>
</mask>
<path d="M815.714 524H878.143V560H815.714V524Z" fill="white" fill-opacity="0.05"/>
<path d="M815.714 524V523H814.714V524H815.714ZM815.714 525H878.143V523H815.714V525ZM816.714 560V524H814.714V560H816.714Z" fill="#5B5B5B" mask="url(#path-415-inside-194_69_10807)"/>
<mask id="path-417-inside-195_69_10807" fill="white">
<path d="M878.143 524H940.571V560H878.143V524Z"/>
</mask>
<path d="M878.143 524H940.571V560H878.143V524Z" fill="white" fill-opacity="0.05"/>
<path d="M878.143 524V523H877.143V524H878.143ZM878.143 525H940.571V523H878.143V525ZM879.143 560V524H877.143V560H879.143Z" fill="#5B5B5B" mask="url(#path-417-inside-195_69_10807)"/>
<mask id="path-419-inside-196_69_10807" fill="white">
<path d="M940.571 524H1003V560H940.571V524Z"/>
</mask>
<path d="M940.571 524H1003V560H940.571V524Z" fill="white" fill-opacity="0.05"/>
<path d="M940.571 524V523H939.571V524H940.571ZM940.571 525H1003V523H940.571V525ZM941.571 560V524H939.571V560H941.571Z" fill="#5B5B5B" mask="url(#path-419-inside-196_69_10807)"/>
</g>
<g clip-path="url(#clip15_69_10807)">
<rect width="874" height="36" transform="translate(129 560)" fill="white" fill-opacity="0.01"/>
<mask id="path-421-inside-197_69_10807" fill="white">
<path d="M129 560H191.429V596H129V560Z"/>
</mask>
<path d="M129 560H191.429V596H129V560Z" fill="white" fill-opacity="0.05"/>
<path d="M129 560V559H128V560H129ZM129 561H191.429V559H129V561ZM130 596V560H128V596H130Z" fill="#5B5B5B" mask="url(#path-421-inside-197_69_10807)"/>
<mask id="path-423-inside-198_69_10807" fill="white">
<path d="M191.429 560H253.857V596H191.429V560Z"/>
</mask>
<path d="M191.429 560H253.857V596H191.429V560Z" fill="white" fill-opacity="0.05"/>
<path d="M191.429 560V559H190.429V560H191.429ZM191.429 561H253.857V559H191.429V561ZM192.429 596V560H190.429V596H192.429Z" fill="#5B5B5B" mask="url(#path-423-inside-198_69_10807)"/>
<mask id="path-425-inside-199_69_10807" fill="white">
<path d="M253.857 560H316.286V596H253.857V560Z"/>
</mask>
<path d="M253.857 560H316.286V596H253.857V560Z" fill="white" fill-opacity="0.05"/>
<path d="M253.857 560V559H252.857V560H253.857ZM253.857 561H316.286V559H253.857V561ZM254.857 596V560H252.857V596H254.857Z" fill="#5B5B5B" mask="url(#path-425-inside-199_69_10807)"/>
<mask id="path-427-inside-200_69_10807" fill="white">
<path d="M316.286 560H378.714V596H316.286V560Z"/>
</mask>
<path d="M316.286 560H378.714V596H316.286V560Z" fill="white" fill-opacity="0.05"/>
<path d="M316.286 560V559H315.286V560H316.286ZM316.286 561H378.714V559H316.286V561ZM317.286 596V560H315.286V596H317.286Z" fill="#5B5B5B" mask="url(#path-427-inside-200_69_10807)"/>
<mask id="path-429-inside-201_69_10807" fill="white">
<path d="M378.714 560H441.143V596H378.714V560Z"/>
</mask>
<path d="M378.714 560H441.143V596H378.714V560Z" fill="white" fill-opacity="0.05"/>
<path d="M378.714 560V559H377.714V560H378.714ZM378.714 561H441.143V559H378.714V561ZM379.714 596V560H377.714V596H379.714Z" fill="#5B5B5B" mask="url(#path-429-inside-201_69_10807)"/>
<mask id="path-431-inside-202_69_10807" fill="white">
<path d="M441.143 560H503.571V596H441.143V560Z"/>
</mask>
<path d="M441.143 560H503.571V596H441.143V560Z" fill="white" fill-opacity="0.05"/>
<path d="M441.143 560V559H440.143V560H441.143ZM441.143 561H503.571V559H441.143V561ZM442.143 596V560H440.143V596H442.143Z" fill="#5B5B5B" mask="url(#path-431-inside-202_69_10807)"/>
<mask id="path-433-inside-203_69_10807" fill="white">
<path d="M503.571 560H566V596H503.571V560Z"/>
</mask>
<path d="M503.571 560H566V596H503.571V560Z" fill="white" fill-opacity="0.05"/>
<path d="M503.571 560V559H502.571V560H503.571ZM503.571 561H566V559H503.571V561ZM504.571 596V560H502.571V596H504.571Z" fill="#5B5B5B" mask="url(#path-433-inside-203_69_10807)"/>
<mask id="path-435-inside-204_69_10807" fill="white">
<path d="M566 560H628.429V596H566V560Z"/>
</mask>
<path d="M566 560H628.429V596H566V560Z" fill="white" fill-opacity="0.05"/>
<path d="M566 560V559H565V560H566ZM566 561H628.429V559H566V561ZM567 596V560H565V596H567Z" fill="#5B5B5B" mask="url(#path-435-inside-204_69_10807)"/>
<mask id="path-437-inside-205_69_10807" fill="white">
<path d="M628.429 560H690.857V596H628.429V560Z"/>
</mask>
<path d="M628.429 560H690.857V596H628.429V560Z" fill="white" fill-opacity="0.05"/>
<path d="M628.429 560V559H627.429V560H628.429ZM628.429 561H690.857V559H628.429V561ZM629.429 596V560H627.429V596H629.429Z" fill="#5B5B5B" mask="url(#path-437-inside-205_69_10807)"/>
<mask id="path-439-inside-206_69_10807" fill="white">
<path d="M690.857 560H753.285V596H690.857V560Z"/>
</mask>
<path d="M690.857 560H753.285V596H690.857V560Z" fill="white" fill-opacity="0.05"/>
<path d="M690.857 560V559H689.857V560H690.857ZM690.857 561H753.285V559H690.857V561ZM691.857 596V560H689.857V596H691.857Z" fill="#5B5B5B" mask="url(#path-439-inside-206_69_10807)"/>
<mask id="path-441-inside-207_69_10807" fill="white">
<path d="M753.286 560H815.714V596H753.286V560Z"/>
</mask>
<path d="M753.286 560H815.714V596H753.286V560Z" fill="white" fill-opacity="0.05"/>
<path d="M753.286 560V559H752.286V560H753.286ZM753.286 561H815.714V559H753.286V561ZM754.286 596V560H752.286V596H754.286Z" fill="#5B5B5B" mask="url(#path-441-inside-207_69_10807)"/>
<mask id="path-443-inside-208_69_10807" fill="white">
<path d="M815.714 560H878.143V596H815.714V560Z"/>
</mask>
<path d="M815.714 560H878.143V596H815.714V560Z" fill="white" fill-opacity="0.05"/>
<path d="M815.714 560V559H814.714V560H815.714ZM815.714 561H878.143V559H815.714V561ZM816.714 596V560H814.714V596H816.714Z" fill="#5B5B5B" mask="url(#path-443-inside-208_69_10807)"/>
<mask id="path-445-inside-209_69_10807" fill="white">
<path d="M878.143 560H940.571V596H878.143V560Z"/>
</mask>
<path d="M878.143 560H940.571V596H878.143V560Z" fill="white" fill-opacity="0.05"/>
<path d="M878.143 560V559H877.143V560H878.143ZM878.143 561H940.571V559H878.143V561ZM879.143 596V560H877.143V596H879.143Z" fill="#5B5B5B" mask="url(#path-445-inside-209_69_10807)"/>
<mask id="path-447-inside-210_69_10807" fill="white">
<path d="M940.571 560H1003V596H940.571V560Z"/>
</mask>
<path d="M940.571 560H1003V596H940.571V560Z" fill="white" fill-opacity="0.05"/>
<path d="M940.571 560V559H939.571V560H940.571ZM940.571 561H1003V559H940.571V561ZM941.571 596V560H939.571V596H941.571Z" fill="#5B5B5B" mask="url(#path-447-inside-210_69_10807)"/>
</g>
<g clip-path="url(#clip16_69_10807)">
<rect width="874" height="36" transform="translate(129 596)" fill="white" fill-opacity="0.01"/>
<mask id="path-449-inside-211_69_10807" fill="white">
<path d="M129 596H191.429V632H129V596Z"/>
</mask>
<path d="M129 596H191.429V632H129V596Z" fill="white" fill-opacity="0.05"/>
<path d="M129 596V595H128V596H129ZM129 597H191.429V595H129V597ZM130 632V596H128V632H130Z" fill="#5B5B5B" mask="url(#path-449-inside-211_69_10807)"/>
<mask id="path-451-inside-212_69_10807" fill="white">
<path d="M191.429 596H253.857V632H191.429V596Z"/>
</mask>
<path d="M191.429 596H253.857V632H191.429V596Z" fill="white" fill-opacity="0.05"/>
<path d="M191.429 596V595H190.429V596H191.429ZM191.429 597H253.857V595H191.429V597ZM192.429 632V596H190.429V632H192.429Z" fill="#5B5B5B" mask="url(#path-451-inside-212_69_10807)"/>
<mask id="path-453-inside-213_69_10807" fill="white">
<path d="M253.857 596H316.286V632H253.857V596Z"/>
</mask>
<path d="M253.857 596H316.286V632H253.857V596Z" fill="white" fill-opacity="0.05"/>
<path d="M253.857 596V595H252.857V596H253.857ZM253.857 597H316.286V595H253.857V597ZM254.857 632V596H252.857V632H254.857Z" fill="#5B5B5B" mask="url(#path-453-inside-213_69_10807)"/>
<mask id="path-455-inside-214_69_10807" fill="white">
<path d="M316.286 596H378.714V632H316.286V596Z"/>
</mask>
<path d="M316.286 596H378.714V632H316.286V596Z" fill="white" fill-opacity="0.05"/>
<path d="M316.286 596V595H315.286V596H316.286ZM316.286 597H378.714V595H316.286V597ZM317.286 632V596H315.286V632H317.286Z" fill="#5B5B5B" mask="url(#path-455-inside-214_69_10807)"/>
<mask id="path-457-inside-215_69_10807" fill="white">
<path d="M378.714 596H441.143V632H378.714V596Z"/>
</mask>
<path d="M378.714 596H441.143V632H378.714V596Z" fill="white" fill-opacity="0.05"/>
<path d="M378.714 596V595H377.714V596H378.714ZM378.714 597H441.143V595H378.714V597ZM379.714 632V596H377.714V632H379.714Z" fill="#5B5B5B" mask="url(#path-457-inside-215_69_10807)"/>
<mask id="path-459-inside-216_69_10807" fill="white">
<path d="M441.143 596H503.571V632H441.143V596Z"/>
</mask>
<path d="M441.143 596H503.571V632H441.143V596Z" fill="white" fill-opacity="0.05"/>
<path d="M441.143 596V595H440.143V596H441.143ZM441.143 597H503.571V595H441.143V597ZM442.143 632V596H440.143V632H442.143Z" fill="#5B5B5B" mask="url(#path-459-inside-216_69_10807)"/>
<mask id="path-461-inside-217_69_10807" fill="white">
<path d="M503.571 596H566V632H503.571V596Z"/>
</mask>
<path d="M503.571 596H566V632H503.571V596Z" fill="white" fill-opacity="0.05"/>
<path d="M503.571 596V595H502.571V596H503.571ZM503.571 597H566V595H503.571V597ZM504.571 632V596H502.571V632H504.571Z" fill="#5B5B5B" mask="url(#path-461-inside-217_69_10807)"/>
<mask id="path-463-inside-218_69_10807" fill="white">
<path d="M566 596H628.429V632H566V596Z"/>
</mask>
<path d="M566 596H628.429V632H566V596Z" fill="white" fill-opacity="0.05"/>
<path d="M566 596V595H565V596H566ZM566 597H628.429V595H566V597ZM567 632V596H565V632H567Z" fill="#5B5B5B" mask="url(#path-463-inside-218_69_10807)"/>
<mask id="path-465-inside-219_69_10807" fill="white">
<path d="M628.429 596H690.857V632H628.429V596Z"/>
</mask>
<path d="M628.429 596H690.857V632H628.429V596Z" fill="white" fill-opacity="0.05"/>
<path d="M628.429 596V595H627.429V596H628.429ZM628.429 597H690.857V595H628.429V597ZM629.429 632V596H627.429V632H629.429Z" fill="#5B5B5B" mask="url(#path-465-inside-219_69_10807)"/>
<mask id="path-467-inside-220_69_10807" fill="white">
<path d="M690.857 596H753.285V632H690.857V596Z"/>
</mask>
<path d="M690.857 596H753.285V632H690.857V596Z" fill="white" fill-opacity="0.05"/>
<path d="M690.857 596V595H689.857V596H690.857ZM690.857 597H753.285V595H690.857V597ZM691.857 632V596H689.857V632H691.857Z" fill="#5B5B5B" mask="url(#path-467-inside-220_69_10807)"/>
<mask id="path-469-inside-221_69_10807" fill="white">
<path d="M753.286 596H815.714V632H753.286V596Z"/>
</mask>
<path d="M753.286 596H815.714V632H753.286V596Z" fill="white" fill-opacity="0.05"/>
<path d="M753.286 596V595H752.286V596H753.286ZM753.286 597H815.714V595H753.286V597ZM754.286 632V596H752.286V632H754.286Z" fill="#5B5B5B" mask="url(#path-469-inside-221_69_10807)"/>
<mask id="path-471-inside-222_69_10807" fill="white">
<path d="M815.714 596H878.143V632H815.714V596Z"/>
</mask>
<path d="M815.714 596H878.143V632H815.714V596Z" fill="white" fill-opacity="0.05"/>
<path d="M815.714 596V595H814.714V596H815.714ZM815.714 597H878.143V595H815.714V597ZM816.714 632V596H814.714V632H816.714Z" fill="#5B5B5B" mask="url(#path-471-inside-222_69_10807)"/>
<mask id="path-473-inside-223_69_10807" fill="white">
<path d="M878.143 596H940.571V632H878.143V596Z"/>
</mask>
<path d="M878.143 596H940.571V632H878.143V596Z" fill="white" fill-opacity="0.05"/>
<path d="M878.143 596V595H877.143V596H878.143ZM878.143 597H940.571V595H878.143V597ZM879.143 632V596H877.143V632H879.143Z" fill="#5B5B5B" mask="url(#path-473-inside-223_69_10807)"/>
<mask id="path-475-inside-224_69_10807" fill="white">
<path d="M940.571 596H1003V632H940.571V596Z"/>
</mask>
<path d="M940.571 596H1003V632H940.571V596Z" fill="white" fill-opacity="0.05"/>
<path d="M940.571 596V595H939.571V596H940.571ZM940.571 597H1003V595H940.571V597ZM941.571 632V596H939.571V632H941.571Z" fill="#5B5B5B" mask="url(#path-475-inside-224_69_10807)"/>
</g>
<g clip-path="url(#clip17_69_10807)">
<rect width="874" height="36" transform="translate(129 632)" fill="white" fill-opacity="0.01"/>
<mask id="path-477-inside-225_69_10807" fill="white">
<path d="M129 632H191.429V668H129V632Z"/>
</mask>
<path d="M129 632H191.429V668H129V632Z" fill="white" fill-opacity="0.05"/>
<path d="M129 632V631H128V632H129ZM129 633H191.429V631H129V633ZM130 668V632H128V668H130Z" fill="#5B5B5B" mask="url(#path-477-inside-225_69_10807)"/>
<mask id="path-479-inside-226_69_10807" fill="white">
<path d="M191.429 632H253.857V668H191.429V632Z"/>
</mask>
<path d="M191.429 632H253.857V668H191.429V632Z" fill="white" fill-opacity="0.05"/>
<path d="M191.429 632V631H190.429V632H191.429ZM191.429 633H253.857V631H191.429V633ZM192.429 668V632H190.429V668H192.429Z" fill="#5B5B5B" mask="url(#path-479-inside-226_69_10807)"/>
<mask id="path-481-inside-227_69_10807" fill="white">
<path d="M253.857 632H316.286V668H253.857V632Z"/>
</mask>
<path d="M253.857 632H316.286V668H253.857V632Z" fill="white" fill-opacity="0.05"/>
<path d="M253.857 632V631H252.857V632H253.857ZM253.857 633H316.286V631H253.857V633ZM254.857 668V632H252.857V668H254.857Z" fill="#5B5B5B" mask="url(#path-481-inside-227_69_10807)"/>
<mask id="path-483-inside-228_69_10807" fill="white">
<path d="M316.286 632H378.714V668H316.286V632Z"/>
</mask>
<path d="M316.286 632H378.714V668H316.286V632Z" fill="white" fill-opacity="0.05"/>
<path d="M316.286 632V631H315.286V632H316.286ZM316.286 633H378.714V631H316.286V633ZM317.286 668V632H315.286V668H317.286Z" fill="#5B5B5B" mask="url(#path-483-inside-228_69_10807)"/>
<mask id="path-485-inside-229_69_10807" fill="white">
<path d="M378.714 632H441.143V668H378.714V632Z"/>
</mask>
<path d="M378.714 632H441.143V668H378.714V632Z" fill="white" fill-opacity="0.05"/>
<path d="M378.714 632V631H377.714V632H378.714ZM378.714 633H441.143V631H378.714V633ZM379.714 668V632H377.714V668H379.714Z" fill="#5B5B5B" mask="url(#path-485-inside-229_69_10807)"/>
<mask id="path-487-inside-230_69_10807" fill="white">
<path d="M441.143 632H503.571V668H441.143V632Z"/>
</mask>
<path d="M441.143 632H503.571V668H441.143V632Z" fill="white" fill-opacity="0.05"/>
<path d="M441.143 632V631H440.143V632H441.143ZM441.143 633H503.571V631H441.143V633ZM442.143 668V632H440.143V668H442.143Z" fill="#5B5B5B" mask="url(#path-487-inside-230_69_10807)"/>
<mask id="path-489-inside-231_69_10807" fill="white">
<path d="M503.571 632H566V668H503.571V632Z"/>
</mask>
<path d="M503.571 632H566V668H503.571V632Z" fill="white" fill-opacity="0.05"/>
<path d="M503.571 632V631H502.571V632H503.571ZM503.571 633H566V631H503.571V633ZM504.571 668V632H502.571V668H504.571Z" fill="#5B5B5B" mask="url(#path-489-inside-231_69_10807)"/>
<mask id="path-491-inside-232_69_10807" fill="white">
<path d="M566 632H628.429V668H566V632Z"/>
</mask>
<path d="M566 632H628.429V668H566V632Z" fill="white" fill-opacity="0.05"/>
<path d="M566 632V631H565V632H566ZM566 633H628.429V631H566V633ZM567 668V632H565V668H567Z" fill="#5B5B5B" mask="url(#path-491-inside-232_69_10807)"/>
<mask id="path-493-inside-233_69_10807" fill="white">
<path d="M628.429 632H690.857V668H628.429V632Z"/>
</mask>
<path d="M628.429 632H690.857V668H628.429V632Z" fill="white" fill-opacity="0.05"/>
<path d="M628.429 632V631H627.429V632H628.429ZM628.429 633H690.857V631H628.429V633ZM629.429 668V632H627.429V668H629.429Z" fill="#5B5B5B" mask="url(#path-493-inside-233_69_10807)"/>
<mask id="path-495-inside-234_69_10807" fill="white">
<path d="M690.857 632H753.285V668H690.857V632Z"/>
</mask>
<path d="M690.857 632H753.285V668H690.857V632Z" fill="white" fill-opacity="0.05"/>
<path d="M690.857 632V631H689.857V632H690.857ZM690.857 633H753.285V631H690.857V633ZM691.857 668V632H689.857V668H691.857Z" fill="#5B5B5B" mask="url(#path-495-inside-234_69_10807)"/>
<mask id="path-497-inside-235_69_10807" fill="white">
<path d="M753.286 632H815.714V668H753.286V632Z"/>
</mask>
<path d="M753.286 632H815.714V668H753.286V632Z" fill="white" fill-opacity="0.05"/>
<path d="M753.286 632V631H752.286V632H753.286ZM753.286 633H815.714V631H753.286V633ZM754.286 668V632H752.286V668H754.286Z" fill="#5B5B5B" mask="url(#path-497-inside-235_69_10807)"/>
<mask id="path-499-inside-236_69_10807" fill="white">
<path d="M815.714 632H878.143V668H815.714V632Z"/>
</mask>
<path d="M815.714 632H878.143V668H815.714V632Z" fill="white" fill-opacity="0.05"/>
<path d="M815.714 632V631H814.714V632H815.714ZM815.714 633H878.143V631H815.714V633ZM816.714 668V632H814.714V668H816.714Z" fill="#5B5B5B" mask="url(#path-499-inside-236_69_10807)"/>
<mask id="path-501-inside-237_69_10807" fill="white">
<path d="M878.143 632H940.571V668H878.143V632Z"/>
</mask>
<path d="M878.143 632H940.571V668H878.143V632Z" fill="white" fill-opacity="0.05"/>
<path d="M878.143 632V631H877.143V632H878.143ZM878.143 633H940.571V631H878.143V633ZM879.143 668V632H877.143V668H879.143Z" fill="#5B5B5B" mask="url(#path-501-inside-237_69_10807)"/>
<mask id="path-503-inside-238_69_10807" fill="white">
<path d="M940.571 632H1003V668H940.571V632Z"/>
</mask>
<path d="M940.571 632H1003V668H940.571V632Z" fill="white" fill-opacity="0.05"/>
<path d="M940.571 632V631H939.571V632H940.571ZM940.571 633H1003V631H940.571V633ZM941.571 668V632H939.571V668H941.571Z" fill="#5B5B5B" mask="url(#path-503-inside-238_69_10807)"/>
</g>
</g>
<rect x="129.5" y="56.5" width="873" height="611" rx="3.5" stroke="#5B5B5B"/>
</g>
</g>
<defs>
<filter id="filter0_d_69_10807" x="19" y="27" width="1021" height="706" filterUnits="userSpaceOnUse" color-interpolation-filters="sRGB">
<feFlood flood-opacity="0" result="BackgroundImageFix"/>
<feColorMatrix in="SourceAlpha" type="matrix" values="0 0 0 0 0 0 0 0 0 0 0 0 0 0 0 0 0 0 127 0" result="hardAlpha"/>
<feOffset dx="-9" dy="11"/>
<feGaussianBlur stdDeviation="2"/>
<feComposite in2="hardAlpha" operator="out"/>
<feColorMatrix type="matrix" values="0 0 0 0 0.545098 0 0 0 0 0.435294 0 0 0 0 0.32549 0 0 0 0.6 0"/>
<feBlend mode="normal" in2="BackgroundImageFix" result="effect1_dropShadow_69_10807"/>
<feBlend mode="normal" in="SourceGraphic" in2="effect1_dropShadow_69_10807" result="shape"/>
</filter>
<clipPath id="clip0_69_10807">
<rect x="129" y="56" width="874" height="612" rx="4" fill="white"/>
</clipPath>
<clipPath id="clip1_69_10807">
<rect width="874" height="36" fill="white" transform="translate(129 56)"/>
</clipPath>
<clipPath id="clip2_69_10807">
<rect width="874" height="36" fill="white" transform="translate(129 92)"/>
</clipPath>
<clipPath id="clip3_69_10807">
<rect width="874" height="36" fill="white" transform="translate(129 128)"/>
</clipPath>
<clipPath id="clip4_69_10807">
<rect width="874" height="36" fill="white" transform="translate(129 164)"/>
</clipPath>
<clipPath id="clip5_69_10807">
<rect width="874" height="36" fill="white" transform="translate(129 200)"/>
</clipPath>
<clipPath id="clip6_69_10807">
<rect width="874" height="36" fill="white" transform="translate(129 236)"/>
</clipPath>
<clipPath id="clip7_69_10807">
<rect width="874" height="36" fill="white" transform="translate(129 272)"/>
</clipPath>
<clipPath id="clip8_69_10807">
<rect width="874" height="36" fill="white" transform="translate(129 308)"/>
</clipPath>
<clipPath id="clip9_69_10807">
<rect width="874" height="36" fill="white" transform="translate(129 344)"/>
</clipPath>
<clipPath id="clip10_69_10807">
<rect width="874" height="36" fill="white" transform="translate(129 380)"/>
</clipPath>
<clipPath id="clip11_69_10807">
<rect width="874" height="36" fill="white" transform="translate(129 416)"/>
</clipPath>
<clipPath id="clip12_69_10807">
<rect width="874" height="36" fill="white" transform="translate(129 452)"/>
</clipPath>
<clipPath id="clip13_69_10807">
<rect width="874" height="36" fill="white" transform="translate(129 488)"/>
</clipPath>
<clipPath id="clip14_69_10807">
<rect width="874" height="36" fill="white" transform="translate(129 524)"/>
</clipPath>
<clipPath id="clip15_69_10807">
<rect width="874" height="36" fill="white" transform="translate(129 560)"/>
</clipPath>
<clipPath id="clip16_69_10807">
<rect width="874" height="36" fill="white" transform="translate(129 596)"/>
</clipPath>
<clipPath id="clip17_69_10807">
<rect width="874" height="36" fill="white" transform="translate(129 632)"/>
</clipPath>
</defs>
</svg>
