<svg width="249" height="246" viewBox="0 0 249 246" fill="none" xmlns="http://www.w3.org/2000/svg">
<circle cx="124.026" cy="123.468" r="119.689" fill="#BBBDBC"/>
<circle cx="124.459" cy="123.902" r="114.919" fill="url(#paint0_radial_56_14503)"/>
<path d="M0 114.361L5.20388 109.591L4.77022 135.61L0 128.672V114.361Z" fill="#909090"/>
<path d="M19.0441 190.355L20.4134 183.43L35.4695 204.655L27.5171 201.888L19.0441 190.355Z" fill="#909090"/>
<path d="M78.3157 239.046L75.1231 232.749L100.064 240.174L92.0976 242.9L78.3157 239.046Z" fill="#909090"/>
<path d="M156.513 244.137L150.196 240.986L174.647 232.078L169.875 239.015L156.513 244.137Z" fill="#909090"/>
<path d="M220.156 202.038L213.135 202.774L228.968 182.122L228.673 190.537L220.156 202.038Z" fill="#909090"/>
<path d="M248.317 132.445L243.097 137.197L243.617 111.18L248.364 118.134L248.317 132.445Z" fill="#909090"/>
<path d="M233.803 64.9616L231.858 71.7478L218.634 49.3353L226.326 52.7594L233.803 64.9616Z" fill="#909090"/>
<path d="M183.252 14.6498L185.457 21.356L161.923 10.2497L170.21 8.75868L183.252 14.6498Z" fill="#909090"/>
<path d="M108.268 0.731884L113.78 5.14226L88.0025 8.70584L94.127 2.92754L108.268 0.731884Z" fill="#909090"/>
<path d="M31.0823 41.038L38.1238 40.5359L21.6111 60.6487L22.1871 52.2483L31.0823 41.038Z" fill="#909090"/>
<defs>
<radialGradient id="paint0_radial_56_14503" cx="0" cy="0" r="1" gradientUnits="userSpaceOnUse" gradientTransform="translate(124.459 123.902) rotate(90) scale(114.919)">
<stop stop-color="#443D33"/>
<stop offset="1" stop-color="#1C1B17"/>
</radialGradient>
</defs>
</svg>
