<svg width="277" height="303" viewBox="0 0 277 303" fill="none" xmlns="http://www.w3.org/2000/svg">
<ellipse cx="138.5" cy="146.227" rx="138.5" ry="137.906" fill="url(#paint0_radial_56_14455)"/>
<ellipse cx="140.284" cy="147.416" rx="39.2318" ry="38.0429" fill="url(#paint1_radial_56_14455)"/>
<path d="M22.4744 72.5193L127.206 141.553C124.552 144.958 126.1 150.222 127.206 152.428L9.20523 197.348C-12.4045 135.69 9.04726 88.4381 22.4744 72.5193Z" fill="white" fill-opacity="0.1"/>
<path d="M241.39 55.6671L146.409 137.6C143.858 134.119 138.371 134.172 135.946 134.634L124.912 8.85616C190.126 4.88167 229.736 38.4074 241.39 55.6671Z" fill="white" fill-opacity="0.1"/>
<path d="M123.666 282.47L139.537 158.042C143.762 158.926 147.807 155.218 149.301 153.253L241.586 239.424C195.741 285.974 143.87 287.517 123.666 282.47Z" fill="white" fill-opacity="0.1"/>
<path d="M127.206 120.073C121.5 122.451 115.318 129.782 112.94 133.15L119.479 141.472L125.423 136.122L130.178 141.472L134.339 136.122L130.773 131.367L134.339 127.206L127.206 120.073Z" fill="#898A8C"/>
<circle cx="139.094" cy="146.227" r="11.8884" fill="#2C2B31"/>
<defs>
<radialGradient id="paint0_radial_56_14455" cx="0" cy="0" r="1" gradientUnits="userSpaceOnUse" gradientTransform="translate(138.5 146.227) rotate(90) scale(137.906 138.5)">
<stop stop-color="#F2D5B8"/>
<stop offset="1" stop-color="#D27B14"/>
</radialGradient>
<radialGradient id="paint1_radial_56_14455" cx="0" cy="0" r="1" gradientUnits="userSpaceOnUse" gradientTransform="translate(140.284 147.416) rotate(90) scale(38.0429 39.2318)">
<stop stop-color="#F7D1AB"/>
<stop offset="1" stop-color="#BA774D"/>
</radialGradient>
</defs>
</svg>
