<svg width="286" height="286" viewBox="0 0 286 286" fill="none" xmlns="http://www.w3.org/2000/svg">
<path d="M0 133.679L5.99188 128.186L5.49255 158.145L0 150.156V133.679Z" fill="#85674C"/>
<path d="M21.9278 221.18L23.5045 213.206L43 237.5L31.6839 234.459L21.9278 221.18Z" fill="#85674C"/>
<path d="M90.1749 277.243L86.4989 269.994L115.217 278.543L106.044 281.681L90.1749 277.243Z" fill="#85674C"/>
<path d="M182.5 281.5L170 278L201.093 269.22L195.599 277.208L182.5 281.5Z" fill="#85674C"/>
<path d="M253.493 234.632L245.409 235.48L262.5 211L263.299 221.39L253.493 234.632Z" fill="#85674C"/>
<path d="M285.918 154.5L279.908 159.973L280.507 130.015L285.973 138.023L285.918 154.5Z" fill="#85674C"/>
<path d="M269.207 76.7986L266.967 84.6124L251.741 58.806L260.598 62.7486L269.207 76.7986Z" fill="#85674C"/>
<path d="M211.001 18.8681L213.54 26.5898L186.443 13.8016L195.985 12.0849L211.001 18.8681Z" fill="#85674C"/>
<path d="M123.5 2.49993L134.5 7.5L102 13L108.895 5.37084L123.5 2.49993Z" fill="#85674C"/>
<path d="M35.7893 49.2523L43.8971 48.6741L24.8839 71.8325L25.5472 62.1602L35.7893 49.2523Z" fill="#85674C"/>
<circle cx="142.807" cy="144.164" r="137.813" fill="#C4A180"/>
<circle cx="143.306" cy="144.663" r="132.321" fill="url(#paint0_radial_57_14524)"/>
<defs>
<radialGradient id="paint0_radial_57_14524" cx="0" cy="0" r="1" gradientUnits="userSpaceOnUse" gradientTransform="translate(143.306 144.663) rotate(90) scale(132.321)">
<stop stop-color="#443D33"/>
<stop offset="1" stop-color="#1C1B17"/>
</radialGradient>
</defs>
</svg>
